<svg width="23" height="25" viewBox="0 0 23 25" fill="none" xmlns="http://www.w3.org/2000/svg">
<path d="M-0.0235596 11.1267V22.6449C-0.0231944 22.9729 0.10724 23.2873 0.339126 23.5192C0.571013 23.751 0.885413 23.8815 1.21335 23.8818H19.7819C20.1099 23.8815 20.4243 23.751 20.6562 23.5192C20.888 23.2873 21.0185 22.9729 21.0188 22.6449V11.1267C21.0185 10.7988 20.888 10.4844 20.6562 10.2525C20.4243 10.0206 20.1099 9.89019 19.7819 9.88983H10.9072C11.4087 9.79291 11.8592 9.52044 12.1779 9.12132C12.4965 8.72219 12.6625 8.22255 12.6461 7.71207C12.6296 7.2016 12.4317 6.7137 12.0879 6.33597C11.7441 5.95824 11.277 5.7154 10.7703 5.65103H13.421C13.5192 5.65072 13.6159 5.62647 13.7026 5.58038C13.7893 5.53429 13.8634 5.46775 13.9186 5.38652C13.9819 5.29564 14.0224 5.19085 14.0367 5.08101C14.051 4.97118 14.0386 4.85952 14.0007 4.75546L12.5948 0.895639C12.5527 0.77493 12.4747 0.669993 12.3712 0.594925C12.2677 0.519857 12.1438 0.478255 12.0159 0.475708H8.97895C8.85103 0.478014 8.7269 0.519554 8.62336 0.594711C8.51982 0.669868 8.44186 0.775013 8.40003 0.895924L6.99481 4.75542C6.9567 4.85925 6.94416 4.97074 6.95824 5.08045C6.97231 5.19016 7.0126 5.29486 7.07568 5.38572C7.13082 5.4671 7.205 5.53379 7.29177 5.57998C7.37854 5.62618 7.47528 5.65049 7.57359 5.65079H10.2296C9.72289 5.71516 9.25575 5.958 8.91198 6.33573C8.56821 6.71347 8.37033 7.20136 8.35384 7.71184C8.33736 8.22231 8.50336 8.72195 8.82204 9.12108C9.14073 9.5202 9.59123 9.79267 10.0927 9.88959H1.21335C0.885372 9.88995 0.570935 10.0204 0.339042 10.2524C0.107149 10.4843 -0.0232574 10.7988 -0.0235596 11.1267ZM7.54347 5.05817C7.53307 5.04248 7.52654 5.02454 7.52442 5.00583C7.52231 4.98713 7.52466 4.96818 7.53129 4.95056L8.9368 1.09036C8.94703 1.06181 8.96616 1.04659 8.97895 1.04659H12.0159C12.0268 1.04659 12.0472 1.06053 12.0585 1.09126L13.4641 4.94975C13.4707 4.96752 13.4731 4.9866 13.4709 5.00544C13.4687 5.02428 13.4621 5.04233 13.4516 5.05813C13.4459 5.06626 13.4344 5.07991 13.4212 5.07991H7.57373C7.56065 5.07991 7.54913 5.06655 7.54347 5.05817ZM8.9231 7.78113C8.9231 7.46923 9.0156 7.16432 9.18888 6.90498C9.36217 6.64564 9.60847 6.44351 9.89664 6.32416C10.1848 6.2048 10.5019 6.17357 10.8078 6.23443C11.1137 6.29529 11.3947 6.44549 11.6153 6.66605C11.8358 6.88661 11.986 7.16762 12.0468 7.47353C12.1077 7.77945 12.0764 8.09654 11.9571 8.3847C11.8377 8.67286 11.6355 8.91915 11.3762 9.09242C11.1168 9.26569 10.8119 9.35817 10.5 9.35815C10.0819 9.35767 9.68108 9.19137 9.38543 8.89572C9.08979 8.60008 8.92349 8.19924 8.92301 7.78113H8.9231ZM19.7819 23.311H1.21335C1.03677 23.3108 0.867469 23.2405 0.742606 23.1157C0.617742 22.9908 0.547511 22.8215 0.547322 22.6449V16.9176L20.448 16.9142V22.6449C20.4478 22.8215 20.3775 22.9908 20.2527 23.1157C20.1278 23.2405 19.9585 23.3108 19.7819 23.311ZM20.448 11.1267V16.3434L0.547322 16.3467V11.1267C0.547511 10.9502 0.617742 10.7809 0.742606 10.656C0.867469 10.5311 1.03677 10.4609 1.21335 10.4607H19.7819C19.9585 10.4609 20.1278 10.5311 20.2527 10.656C20.3775 10.7809 20.4478 10.9502 20.448 11.1267Z" fill="black"/>
<path d="M9.18449 12.4404H11.8105C11.8862 12.4404 11.9588 12.4103 12.0124 12.3568C12.0659 12.3033 12.096 12.2307 12.096 12.1549C12.096 12.0792 12.0659 12.0066 12.0124 11.9531C11.9588 11.8996 11.8862 11.8695 11.8105 11.8695H9.18449C9.10878 11.8695 9.03618 11.8996 8.98265 11.9531C8.92912 12.0066 8.89905 12.0792 8.89905 12.1549C8.89905 12.2307 8.92912 12.3033 8.98265 12.3568C9.03618 12.4103 9.10878 12.4404 9.18449 12.4404Z" fill="black"/>
<path d="M11.8108 18.365H9.18473C9.10903 18.365 9.03643 18.3951 8.9829 18.4486C8.92936 18.5021 8.89929 18.5747 8.89929 18.6504C8.89929 18.7261 8.92936 18.7987 8.9829 18.8523C9.03643 18.9058 9.10903 18.9359 9.18473 18.9359H11.8108C11.8865 18.9359 11.9591 18.9058 12.0126 18.8523C12.0662 18.7987 12.0962 18.7261 12.0962 18.6504C12.0962 18.5747 12.0662 18.5021 12.0126 18.4486C11.9591 18.3951 11.8865 18.365 11.8108 18.365Z" fill="black"/>
</svg>
