<svg width="20" height="10" viewBox="0 0 20 10" fill="none" xmlns="http://www.w3.org/2000/svg">
<path d="M13.8516 2.45486C13.8516 2.45322 13.8516 2.45158 13.8516 2.4499C13.8516 2.44822 13.8516 2.44697 13.8516 2.44553V2.4342C13.8516 2.42658 13.8512 2.41904 13.8505 2.41162C13.8254 1.97373 13.3697 1.60135 12.5285 1.33295C11.758 1.08705 10.7382 0.95166 9.65671 0.95166C8.57526 0.95166 7.55534 1.08705 6.78487 1.33295C5.91925 1.60912 5.46171 1.99541 5.46171 2.4499C5.45704 2.46826 5.45463 2.48713 5.45452 2.50607L5.45288 3.29775V3.29822C5.45288 3.75271 5.91042 4.139 6.77605 4.41541C7.34081 4.5956 8.03983 4.71619 8.79859 4.76791L6.60878 8.88857C6.59434 8.91576 6.58539 8.94553 6.58245 8.97617C6.57951 9.00682 6.58264 9.03774 6.59165 9.06718C6.60066 9.09662 6.61538 9.12399 6.63497 9.14774C6.65457 9.17149 6.67864 9.19114 6.70583 9.20559C6.73302 9.22003 6.76278 9.22897 6.79343 9.23191C6.82407 9.23485 6.855 9.23173 6.88444 9.22271C6.91387 9.2137 6.94125 9.19898 6.965 9.17939C6.98874 9.1598 7.0084 9.13572 7.02284 9.10853L9.31679 4.79213C9.42648 4.79494 9.53683 4.79674 9.64808 4.79674C9.76222 4.79674 9.8755 4.7949 9.98792 4.79189L12.2819 9.10857C12.3111 9.16348 12.3609 9.20455 12.4204 9.22275C12.4798 9.24095 12.544 9.23479 12.599 9.20562C12.6539 9.17646 12.6949 9.12667 12.7131 9.06722C12.7313 9.00777 12.7252 8.94352 12.696 8.88861L10.5057 4.76729C11.2612 4.71525 11.9571 4.59494 12.5198 4.41541C13.3854 4.1392 13.8429 3.75291 13.8429 3.29842C13.8429 3.29369 13.8425 3.28904 13.8422 3.28436C13.8473 3.26523 13.8499 3.24554 13.85 3.22576L13.8516 2.45486ZM9.65679 1.42041C11.929 1.42041 13.3797 2.02881 13.3829 2.44854V2.45131C13.3796 2.87104 11.9289 3.47939 9.65683 3.47939C7.38218 3.47939 5.93058 2.86967 5.93058 2.4499C5.93058 2.03014 7.38214 1.42041 9.65679 1.42041ZM9.64796 4.32795C7.37331 4.32795 5.92175 3.71822 5.92171 3.29846L5.92198 3.16912C6.1371 3.31865 6.42589 3.45225 6.78495 3.56689C7.55542 3.81275 8.5753 3.94814 9.65679 3.94814C10.7383 3.94814 11.7581 3.81275 12.5286 3.56689C12.882 3.45408 13.1673 3.32295 13.3814 3.17627V3.22482C13.3814 3.22975 13.3818 3.23455 13.3821 3.23939C13.377 3.25863 13.3743 3.27844 13.3743 3.29834C13.3742 3.71822 11.9226 4.32814 9.64796 4.32814V4.32795Z" fill="black"/>
<path d="M19.0589 0.779299C19.0297 0.769491 18.9989 0.765529 18.9681 0.767642C18.9374 0.769755 18.9074 0.7779 18.8798 0.791613C18.8523 0.805325 18.8277 0.824336 18.8075 0.847559C18.7872 0.870782 18.7718 0.897761 18.762 0.926955L18.7117 1.07688C18.4878 1.74453 18.3706 2.83153 18.3706 3.56028V4.83278H14.2826C13.8091 4.83278 13.424 5.22887 13.424 5.71559V8.9984C13.424 9.06056 13.4486 9.12017 13.4926 9.16413C13.5366 9.20808 13.5962 9.23277 13.6583 9.23277C13.7205 9.23277 13.7801 9.20808 13.8241 9.16413C13.868 9.12017 13.8927 9.06056 13.8927 8.9984V6.05375H18.3707V8.99856C18.3707 9.06072 18.3954 9.12033 18.4394 9.16428C18.4833 9.20824 18.543 9.23293 18.6051 9.23293C18.6673 9.23293 18.7269 9.20824 18.7709 9.16428C18.8148 9.12033 18.8395 9.06072 18.8395 8.99856V3.56028C18.8395 2.88649 18.9505 1.83938 19.1563 1.22598L19.2066 1.07606C19.2164 1.04687 19.2203 1.01605 19.2182 0.98534C19.2161 0.954632 19.2079 0.924643 19.1942 0.897086C19.1805 0.869529 19.1615 0.844943 19.1382 0.824733C19.115 0.804523 19.0881 0.789085 19.0589 0.779299ZM13.9129 5.585C13.9363 5.50453 13.9848 5.43362 14.0513 5.38263C14.1178 5.33164 14.1988 5.30322 14.2826 5.30152H18.3707V5.585H13.9129Z" fill="black"/>
<path d="M5.32604 6.05373V8.99854C5.32604 9.0607 5.35073 9.12031 5.39469 9.16427C5.43864 9.20822 5.49825 9.23291 5.56041 9.23291C5.62257 9.23291 5.68219 9.20822 5.72614 9.16427C5.7701 9.12031 5.79479 9.0607 5.79479 8.99854V5.71573C5.79479 5.22885 5.40959 4.83291 4.93612 4.83291H0.847992V3.56026C0.847992 2.83151 0.730805 1.74452 0.506898 1.07686L0.456625 0.926937C0.436853 0.867999 0.394477 0.819329 0.338821 0.791635C0.283164 0.76394 0.218786 0.759489 0.159848 0.779262C0.100909 0.799034 0.0522396 0.841409 0.024545 0.897065C-0.00314957 0.952722 -0.00760037 1.0171 0.0121717 1.07604L0.0624842 1.22596C0.268226 1.83924 0.379242 2.88647 0.379242 3.56026V8.99854C0.379242 9.0607 0.403935 9.12031 0.447889 9.16427C0.491843 9.20822 0.551457 9.23291 0.613617 9.23291C0.675777 9.23291 0.735391 9.20822 0.779345 9.16427C0.823299 9.12031 0.847992 9.0607 0.847992 8.99854V6.05373H5.32604ZM5.30584 5.58498H0.847992V5.30151H4.93612C5.01991 5.3032 5.10096 5.33162 5.16747 5.38261C5.23397 5.43361 5.28246 5.50451 5.30584 5.58498Z" fill="black"/>
</svg>
