<svg width="15" height="25" viewBox="0 0 15 25" fill="none" xmlns="http://www.w3.org/2000/svg">
<path d="M14.7656 22.8125V1.30729C14.7656 0.58644 14.3102 0 13.7504 0H1.0152C0.45543 0 0 0.58644 0 1.30729V22.8125C0 23.556 0.45543 24.1608 1.0152 24.1608H13.7504C14.3102 24.1608 14.7656 23.556 14.7656 22.8125ZM7.60269 8.11322H14.2969V15.6309H7.60269V8.11322ZM14.2969 1.30729V7.52393H7.60269V0.589288H13.7504C14.0518 0.589288 14.2969 0.911383 14.2969 1.30729ZM0.46875 22.8125V1.30729C0.46875 0.911383 0.713867 0.589288 1.0152 0.589288H7.13394V23.5715H1.0152C0.713867 23.5715 0.46875 23.231 0.46875 22.8125ZM13.7504 23.5715H7.60269V16.2202H14.2969V22.8123C14.2969 23.231 14.0518 23.5715 13.7504 23.5715Z" fill="black"/>
<path d="M6.11523 11.6892C6.05307 11.6892 5.99346 11.7203 5.94951 11.7755C5.90555 11.8308 5.88086 11.9057 5.88086 11.9839V13.883C5.88086 13.9611 5.90555 14.0361 5.94951 14.0913C5.99346 14.1466 6.05307 14.1776 6.11523 14.1776C6.17739 14.1776 6.23701 14.1466 6.28096 14.0913C6.32492 14.0361 6.34961 13.9611 6.34961 13.883V11.9839C6.34961 11.9057 6.32492 11.8308 6.28096 11.7755C6.23701 11.7203 6.17739 11.6892 6.11523 11.6892Z" fill="black"/>
<path d="M10.3231 11.6574H11.5767C11.6388 11.6574 11.6984 11.6264 11.7424 11.5711C11.7864 11.5158 11.8111 11.4409 11.8111 11.3628C11.8111 11.2846 11.7864 11.2097 11.7424 11.1544C11.6984 11.0992 11.6388 11.0681 11.5767 11.0681H10.3231C10.261 11.0681 10.2013 11.0992 10.1574 11.1544C10.1134 11.2097 10.0887 11.2846 10.0887 11.3628C10.0887 11.4409 10.1134 11.5158 10.1574 11.5711C10.2013 11.6264 10.261 11.6574 10.3231 11.6574Z" fill="black"/>
<path d="M11.5767 18.6538H10.3231C10.261 18.6538 10.2013 18.6849 10.1574 18.7401C10.1134 18.7954 10.0887 18.8703 10.0887 18.9485C10.0887 19.0266 10.1134 19.1015 10.1574 19.1568C10.2013 19.2121 10.261 19.2431 10.3231 19.2431H11.5767C11.6388 19.2431 11.6984 19.2121 11.7424 19.1568C11.7864 19.1015 11.8111 19.0266 11.8111 18.9485C11.8111 18.8703 11.7864 18.7954 11.7424 18.7401C11.6984 18.6849 11.6388 18.6538 11.5767 18.6538Z" fill="black"/>
<path d="M11.5767 17.7102H10.3231C10.261 17.7102 10.2013 17.7412 10.1574 17.7965C10.1134 17.8518 10.0887 17.9267 10.0887 18.0048C10.0887 18.083 10.1134 18.1579 10.1574 18.2132C10.2013 18.2685 10.261 18.2995 10.3231 18.2995H11.5767C11.6388 18.2995 11.6984 18.2685 11.7424 18.2132C11.7864 18.1579 11.8111 18.083 11.8111 18.0048C11.8111 17.9267 11.7864 17.8518 11.7424 17.7965C11.6984 17.7412 11.6388 17.7102 11.5767 17.7102Z" fill="black"/>
</svg>
