<svg width="20" height="21" viewBox="0 0 20 21" fill="none" xmlns="http://www.w3.org/2000/svg">
<path d="M18.2031 0H17.8134C17.5441 0.000376939 17.286 0.135017 17.0956 0.37438C16.9052 0.613743 16.7981 0.938281 16.7978 1.27679V3.02266H12.8353C12.6704 3.02121 12.5075 3.06799 12.3595 3.15929C12.2114 3.25059 12.0823 3.38392 11.9823 3.54874H7.4957V3.28096C7.49519 2.94285 7.38801 2.61879 7.19768 2.37989C7.00736 2.14099 6.74942 2.00675 6.48047 2.00662H3.30531C3.12534 2.00675 2.94863 2.06697 2.79324 2.18113C2.63786 2.29529 2.50939 2.4593 2.42098 2.65636V1.27679C2.42068 0.938281 2.31358 0.613743 2.12318 0.37438C1.93277 0.135017 1.67462 0.000376939 1.40535 0H1.01563C0.746357 0.000376939 0.488203 0.135017 0.297801 0.37438C0.107399 0.613743 0.000299837 0.938281 0 1.27679V19.8394C9.30511e-05 19.9435 0.0330469 20.0434 0.0916319 20.117C0.150217 20.1907 0.229648 20.2321 0.3125 20.2322H2.10848C2.19133 20.2321 2.27076 20.1907 2.32935 20.117C2.38793 20.0434 2.42088 19.9435 2.42098 19.8394V18.6412H16.7978V19.8394C16.7979 19.9435 16.8308 20.0434 16.8894 20.117C16.948 20.1907 17.0274 20.2321 17.1103 20.2322H18.9063C18.9891 20.2321 19.0685 20.1907 19.1271 20.117C19.1857 20.0434 19.2187 19.9435 19.2188 19.8394V1.27679C19.2185 0.938281 19.1114 0.613743 18.921 0.37438C18.7306 0.135017 18.4724 0.000376939 18.2031 0ZM2.42098 15.7133V14.6858C2.42345 14.669 2.42476 14.652 2.42488 14.6349C2.42488 14.2507 2.65426 13.9498 2.94707 13.9498H7.2084C7.24679 13.9627 7.2872 13.9627 7.32559 13.9498H11.7953C11.7898 14.0025 11.787 14.0556 11.787 14.1088V15.7133H2.42098ZM7.20266 4.13803C7.24105 4.15089 7.28145 4.15089 7.31985 4.13803H11.7899C11.7844 4.19073 11.7816 4.24383 11.7815 4.29699V5.90148H2.42098V4.77726C2.43848 4.41544 2.66047 4.13803 2.94148 4.13803H7.20266ZM11.9878 13.3604H7.50117V13.0926C7.50066 12.7545 7.39348 12.4305 7.20317 12.1916C7.01285 11.9527 6.75493 11.8184 6.48598 11.8183H3.31078C3.12895 11.8184 2.95047 11.8798 2.79397 11.9962C2.63746 12.1126 2.50865 12.2796 2.42098 12.4798V9.07401H16.7978V12.8344H12.8407C12.6758 12.833 12.5129 12.8798 12.3649 12.9711C12.2169 13.0624 12.0877 13.1957 11.9877 13.3605L11.9878 13.3604ZM2.94699 13.3604C2.88575 13.3605 2.82464 13.3675 2.76441 13.3815V13.0926C2.76478 12.9107 2.82251 12.7365 2.92496 12.608C3.0274 12.4796 3.16618 12.4075 3.31086 12.4076H6.48606C6.63073 12.4075 6.76951 12.4796 6.87195 12.608C6.97439 12.7365 7.03213 12.9107 7.0325 13.0926V13.3604H2.94699ZM16.7979 8.48457H2.42098V6.49081H11.7843C11.82 7.15465 12.2777 7.68167 12.8355 7.68167H16.7978L16.7979 8.48457ZM12.2557 14.1088C12.2556 13.9995 12.2778 13.8921 12.3203 13.7968C12.3725 13.6816 12.4483 13.5862 12.5399 13.5206C12.6315 13.4549 12.7354 13.4214 12.8408 13.4235H16.7978V16.904H12.8408C12.5182 16.904 12.2557 16.5967 12.2557 16.2189V14.1088ZM12.8353 3.61194H16.7978V7.09233H12.8353C12.5127 7.09233 12.2503 6.78502 12.2503 6.40728V4.29689C12.2501 4.18762 12.2724 4.08013 12.3149 3.98482C12.3671 3.86973 12.4429 3.77441 12.5345 3.70881C12.626 3.64321 12.7299 3.60976 12.8353 3.61194ZM3.30531 2.59591H6.48047C6.62514 2.59587 6.76391 2.66798 6.86635 2.7964C6.96878 2.92483 7.02651 3.09909 7.02688 3.28096V3.54874H2.94141C2.88017 3.5488 2.81906 3.55586 2.75883 3.56981V3.28096C2.75919 3.09907 2.81693 2.9248 2.91938 2.79637C3.02184 2.66794 3.16063 2.59585 3.30531 2.59591ZM1.95223 19.6429H0.46875V1.27679C0.468905 1.09451 0.526572 0.919758 0.629097 0.790869C0.731623 0.661979 0.870633 0.589483 1.01563 0.589288H1.40535C1.55034 0.589483 1.68935 0.661979 1.79188 0.790869C1.89441 0.919758 1.95207 1.09451 1.95223 1.27679V4.74868C1.95117 4.77323 1.95051 4.79779 1.95051 4.82293C1.95056 4.83442 1.95114 4.8459 1.95223 4.85731V6.19244V6.19602C1.95223 6.19602 1.95223 6.19838 1.95223 6.19956V19.6429ZM2.42098 18.0519V16.3026H11.7895C11.8252 16.9664 12.2829 17.4934 12.8408 17.4934H16.7978V18.0519H2.42098ZM18.75 19.6429H17.2665V1.27679C17.2667 1.09451 17.3243 0.919758 17.4269 0.790869C17.5294 0.661979 17.6684 0.589483 17.8134 0.589288H18.2031C18.3481 0.589483 18.4871 0.661979 18.5897 0.790869C18.6922 0.919758 18.7498 1.09451 18.75 1.27679V19.6429Z" fill="black"/>
</svg>
