<svg width="20" height="18" viewBox="0 0 20 18" fill="none" xmlns="http://www.w3.org/2000/svg">
<path d="M1.50269 17.517H18.4974C18.7666 17.5167 19.0248 17.4096 19.2152 17.2192C19.4056 17.0288 19.5127 16.7707 19.513 16.5014V10.3772C19.5127 10.1079 19.4056 9.84978 19.2152 9.65937C19.0248 9.46897 18.7666 9.36187 18.4974 9.36157H1.50269C1.23342 9.36187 0.975263 9.46897 0.784861 9.65937C0.59446 9.84978 0.48736 10.1079 0.487061 10.3772V16.5014C0.48736 16.7707 0.59446 17.0288 0.784861 17.2192C0.975263 17.4096 1.23342 17.5167 1.50269 17.517ZM0.955811 16.5014V11.618H3.3469V17.0483H1.50269C1.3577 17.0481 1.21869 16.9905 1.11617 16.8879C1.01365 16.7854 0.955976 16.6464 0.955811 16.5014ZM6.22534 11.618V17.0483H3.81565V11.618H6.22534ZM19.0442 14.5284H13.7747V12.5164H19.0442V14.5284ZM13.306 17.0483H6.69409V9.83032H13.306V17.0483ZM18.4974 17.0483H13.7747V14.9972H19.0442V16.5014C19.0441 16.6464 18.9864 16.7854 18.8839 16.8879C18.7814 16.9905 18.6424 17.0481 18.4974 17.0483ZM19.0442 10.3772V12.0477H13.7747V9.83032H18.4974C18.6424 9.83048 18.7814 9.88814 18.8839 9.99067C18.9864 10.0932 19.0441 10.2322 19.0442 10.3772ZM1.50269 9.83032H6.22534V11.1492H0.955811V10.3772C0.955966 10.2322 1.01363 10.0932 1.11616 9.99067C1.21868 9.88814 1.35769 9.83048 1.50269 9.83032Z" fill="black"/>
<path d="M12.9446 16.7508V12.2075H7.05542V16.7508H12.9446ZM7.52417 12.6763H12.4759V16.282H7.52417V12.6763Z" fill="black"/>
<path d="M7.62195 11.3623H12.3782C12.4404 11.3623 12.5 11.3376 12.5439 11.2937C12.5879 11.2497 12.6126 11.1901 12.6126 11.1279C12.6126 11.0658 12.5879 11.0062 12.5439 10.9622C12.5 10.9182 12.4404 10.8936 12.3782 10.8936H7.62195C7.55979 10.8936 7.50017 10.9182 7.45622 10.9622C7.41227 11.0062 7.38757 11.0658 7.38757 11.1279C7.38757 11.1901 7.41227 11.2497 7.45622 11.2937C7.50017 11.3376 7.55979 11.3623 7.62195 11.3623Z" fill="black"/>
<path d="M3.4668 10.6667H3.73098C3.79314 10.6667 3.85275 10.6421 3.8967 10.5981C3.94066 10.5541 3.96535 10.4945 3.96535 10.4324C3.96535 10.3702 3.94066 10.3106 3.8967 10.2666C3.85275 10.2227 3.79314 10.198 3.73098 10.198H3.4668C3.40464 10.198 3.34502 10.2227 3.30107 10.2666C3.25712 10.3106 3.23242 10.3702 3.23242 10.4324C3.23242 10.4945 3.25712 10.5541 3.30107 10.5981C3.34502 10.6421 3.40464 10.6667 3.4668 10.6667Z" fill="black"/>
<path d="M16.0601 10.668H16.6211C16.6833 10.668 16.7429 10.6433 16.7868 10.5993C16.8308 10.5554 16.8555 10.4958 16.8555 10.4336C16.8555 10.3714 16.8308 10.3118 16.7868 10.2679C16.7429 10.2239 16.6833 10.1992 16.6211 10.1992H16.0601C15.9979 10.1992 15.9383 10.2239 15.8943 10.2679C15.8504 10.3118 15.8257 10.3714 15.8257 10.4336C15.8257 10.4958 15.8504 10.5554 15.8943 10.5993C15.9383 10.6433 15.9979 10.668 16.0601 10.668Z" fill="black"/>
<path d="M16.0601 13.3721H16.6211C16.6833 13.3721 16.7429 13.3474 16.7868 13.3034C16.8308 13.2595 16.8555 13.1999 16.8555 13.1377C16.8555 13.0755 16.8308 13.0159 16.7868 12.972C16.7429 12.928 16.6833 12.9033 16.6211 12.9033H16.0601C15.9979 12.9033 15.9383 12.928 15.8943 12.972C15.8504 13.0159 15.8257 13.0755 15.8257 13.1377C15.8257 13.1999 15.8504 13.2595 15.8943 13.3034C15.9383 13.3474 15.9979 13.3721 16.0601 13.3721Z" fill="black"/>
<path d="M16.6211 15.3591H16.0601C15.9979 15.3591 15.9383 15.3838 15.8943 15.4278C15.8504 15.4717 15.8257 15.5313 15.8257 15.5935C15.8257 15.6557 15.8504 15.7153 15.8943 15.7592C15.9383 15.8032 15.9979 15.8279 16.0601 15.8279H16.6211C16.6833 15.8279 16.7429 15.8032 16.7868 15.7592C16.8308 15.7153 16.8555 15.6557 16.8555 15.5935C16.8555 15.5313 16.8308 15.4717 16.7868 15.4278C16.7429 15.3838 16.6833 15.3591 16.6211 15.3591Z" fill="black"/>
<path d="M1.50269 6.63818H6.68702C6.95629 6.63788 7.21444 6.53078 7.40485 6.34038C7.59525 6.14998 7.70235 5.89183 7.70265 5.62256V1.49854C7.70234 1.22927 7.59523 0.971122 7.40483 0.780722C7.21443 0.590323 6.95629 0.48322 6.68702 0.48291H1.50269C1.23342 0.48321 0.975263 0.590309 0.784861 0.780711C0.59446 0.971113 0.48736 1.22927 0.487061 1.49854V5.62256C0.48736 5.89183 0.59446 6.14998 0.784861 6.34038C0.975263 6.53078 1.23342 6.63788 1.50269 6.63818ZM7.2339 1.49854V5.62256C7.23373 5.76755 7.17606 5.90655 7.07354 6.00907C6.97101 6.1116 6.83201 6.16927 6.68702 6.16943H4.32921V0.95166H6.68702C6.83201 0.951836 6.97101 1.00951 7.07353 1.11203C7.17605 1.21455 7.23372 1.35355 7.2339 1.49854ZM0.955811 1.49854C0.955976 1.35355 1.01365 1.21454 1.11617 1.11202C1.21869 1.0095 1.3577 0.951826 1.50269 0.95166H3.86046V6.16943H1.50269C1.35769 6.16928 1.21868 6.11161 1.11616 6.00909C1.01363 5.90656 0.955966 5.76755 0.955811 5.62256V1.49854Z" fill="black"/>
<path d="M3.16089 4.0014C3.22305 4.0014 3.28266 3.9767 3.32662 3.93275C3.37057 3.8888 3.39526 3.82918 3.39526 3.76702V3.35425C3.39526 3.29209 3.37057 3.23247 3.32662 3.18852C3.28266 3.14457 3.22305 3.11987 3.16089 3.11987C3.09873 3.11987 3.03911 3.14457 2.99516 3.18852C2.95121 3.23247 2.92651 3.29209 2.92651 3.35425V3.76702C2.92651 3.82918 2.95121 3.8888 2.99516 3.93275C3.03911 3.9767 3.09873 4.0014 3.16089 4.0014Z" fill="black"/>
<path d="M4.95459 4.0014C5.01675 4.0014 5.07636 3.9767 5.12032 3.93275C5.16427 3.8888 5.18897 3.82918 5.18897 3.76702V3.35425C5.18897 3.29209 5.16427 3.23247 5.12032 3.18852C5.07636 3.14457 5.01675 3.11987 4.95459 3.11987C4.89243 3.11987 4.83282 3.14457 4.78886 3.18852C4.74491 3.23247 4.72021 3.29209 4.72021 3.35425V3.76702C4.72021 3.82918 4.74491 3.8888 4.78886 3.93275C4.83282 3.9767 4.89243 4.0014 4.95459 4.0014Z" fill="black"/>
<path d="M13 0.48291C12.7307 0.48321 12.4726 0.590309 12.2822 0.780711C12.0918 0.971113 11.9847 1.22927 11.9844 1.49854V5.62256C11.9847 5.89183 12.0918 6.14998 12.2822 6.34038C12.4726 6.53078 12.7307 6.63788 13 6.63818H18.1841C18.4534 6.63788 18.7116 6.53078 18.902 6.34038C19.0924 6.14998 19.1995 5.89183 19.1998 5.62256V1.49854C19.1995 1.22927 19.0924 0.971113 18.902 0.780711C18.7116 0.590309 18.4534 0.48321 18.1841 0.48291H13ZM12.4531 5.62256V1.49854C12.4533 1.35355 12.511 1.21454 12.6135 1.11202C12.716 1.0095 12.855 0.951826 13 0.95166H15.3578V6.16943H13C12.855 6.16928 12.716 6.11161 12.6135 6.00909C12.5109 5.90656 12.4533 5.76755 12.4531 5.62256ZM18.731 1.49854V5.62256C18.7309 5.76755 18.6732 5.90655 18.5707 6.00907C18.4681 6.1116 18.3291 6.16927 18.1841 6.16943H15.8264V0.95166H18.1841C18.3291 0.951836 18.4681 1.00951 18.5706 1.11203C18.6732 1.21455 18.7308 1.35355 18.731 1.49854Z" fill="black"/>
<path d="M14.6494 3.11987C14.5873 3.11987 14.5276 3.14457 14.4837 3.18852C14.4397 3.23247 14.415 3.29209 14.415 3.35425V3.76702C14.415 3.82918 14.4397 3.8888 14.4837 3.93275C14.5276 3.9767 14.5873 4.0014 14.6494 4.0014C14.7116 4.0014 14.7712 3.9767 14.8151 3.93275C14.8591 3.8888 14.8838 3.82918 14.8838 3.76702V3.35425C14.8838 3.29209 14.8591 3.23247 14.8151 3.18852C14.7712 3.14457 14.7116 3.11987 14.6494 3.11987Z" fill="black"/>
<path d="M16.4431 4.0014C16.5053 4.0014 16.5649 3.9767 16.6088 3.93275C16.6528 3.8888 16.6775 3.82918 16.6775 3.76702V3.35425C16.6775 3.29209 16.6528 3.23247 16.6088 3.18852C16.5649 3.14457 16.5053 3.11987 16.4431 3.11987C16.381 3.11987 16.3213 3.14457 16.2774 3.18852C16.2334 3.23247 16.2087 3.29209 16.2087 3.35425V3.76702C16.2087 3.82918 16.2334 3.8888 16.2774 3.93275C16.3213 3.9767 16.381 4.0014 16.4431 4.0014Z" fill="black"/>
<path d="M8.89838 0.48291V3.52447L8.00264 5.13252L8.00065 5.13611C7.97695 5.18048 7.96515 5.23023 7.9664 5.28051C7.96764 5.3308 7.98189 5.3799 8.00776 5.42304C8.03362 5.46618 8.07022 5.50189 8.11398 5.52668C8.15774 5.55147 8.20718 5.56451 8.25748 5.56451H11.4573C11.5076 5.5645 11.557 5.55147 11.6008 5.5267C11.6445 5.50192 11.6811 5.46624 11.707 5.42312C11.7328 5.38001 11.7471 5.33093 11.7484 5.28067C11.7497 5.23041 11.7379 5.18068 11.7142 5.13631L10.8163 3.52447V0.48291H8.89838ZM9.36713 0.95166H10.3476V3.33623H9.36713V0.95166ZM8.55979 5.09576L9.27877 3.80498H10.4363L11.1553 5.09576H8.55979Z" fill="black"/>
</svg>
