<svg width="20" height="20" viewBox="0 0 20 20" fill="none" xmlns="http://www.w3.org/2000/svg">
<path d="M0.234375 19.6375H9.60938C9.67154 19.6375 9.73115 19.6064 9.7751 19.5512C9.81906 19.4959 9.84375 19.421 9.84375 19.3428V8.25376H18.75V19.3428C18.75 19.421 18.7747 19.4959 18.8186 19.5512C18.8626 19.6064 18.9222 19.6375 18.9844 19.6375C19.0465 19.6375 19.1062 19.6064 19.1501 19.5512C19.1941 19.4959 19.2188 19.421 19.2188 19.3428V7.95912C19.2188 7.88097 19.1941 7.80603 19.1501 7.75077C19.1062 7.69552 19.0465 7.66447 18.9844 7.66447H8.97094V6.67481H9.16707C9.27063 6.67466 9.36992 6.62287 9.44315 6.53081C9.51638 6.43875 9.55757 6.31393 9.5577 6.18374V4.99333C9.55757 4.86314 9.51638 4.73832 9.44315 4.64626C9.36992 4.5542 9.27063 4.50241 9.16707 4.50225H4.06855C3.96499 4.5024 3.8657 4.55418 3.79247 4.64625C3.71924 4.73831 3.67804 4.86313 3.67793 4.99333V6.09181H3.48895C3.2659 6.09181 3.09121 6.34137 3.09121 6.65998V7.66438H2.53484C2.59073 7.64782 2.63983 7.60605 2.67284 7.547C2.70585 7.48795 2.72047 7.41572 2.71393 7.34401C2.70739 7.27231 2.68014 7.20611 2.63735 7.15799C2.59456 7.10987 2.53921 7.08316 2.4818 7.08294H1.93945C1.95166 7.04663 1.95793 7.0076 1.95789 6.96818V2.9512C2.07879 2.93763 2.19525 2.88731 2.29723 2.80457C2.39922 2.72183 2.48367 2.60916 2.54331 2.47626C2.60295 2.34337 2.63599 2.19423 2.63959 2.04171C2.64318 1.88918 2.61722 1.73785 2.56395 1.60075L4.0952 0.616685C4.12405 0.598037 4.15616 0.588807 4.18859 0.589845C4.22102 0.590884 4.25272 0.602156 4.28078 0.622627L6.16359 1.97607C6.15192 2.09923 6.17318 2.22376 6.22402 2.33004C6.15965 2.76636 6.27481 3.28027 6.48992 3.61626C6.5182 3.66052 6.55364 3.69672 6.59389 3.72244C6.63414 3.74816 6.67829 3.76282 6.7234 3.76545C6.7282 3.76545 6.73297 3.76584 6.73773 3.76584C6.78007 3.76583 6.82197 3.7551 6.86094 3.7343C6.89991 3.71351 6.93515 3.68307 6.96457 3.64479L7.85805 2.48242C7.88876 2.44241 7.91248 2.39477 7.9277 2.34256C7.94291 2.29035 7.94929 2.23472 7.94641 2.17923C7.94353 2.12438 7.93157 2.07088 7.91129 2.02218C7.89101 1.97348 7.86286 1.93064 7.82863 1.89642C7.55734 1.62594 7.17059 1.47238 6.83977 1.5455C6.78198 1.50333 6.71742 1.47794 6.65082 1.4712C6.58422 1.46445 6.51726 1.47652 6.45484 1.50651L4.51383 0.111223C4.41814 0.0417564 4.31011 0.00359677 4.19964 0.000242083C4.08918 -0.00311261 3.97981 0.0284451 3.88156 0.0920222L2.21145 1.16551C2.03954 1.06329 1.84311 1.04723 1.66212 1.12061C1.48113 1.19399 1.32917 1.35129 1.23715 1.56051C1.14514 1.76973 1.11998 2.01516 1.16679 2.24687C1.2136 2.47859 1.32886 2.67918 1.48914 2.80785V6.96828C1.48912 7.0077 1.49539 7.04672 1.50758 7.08304H1.11969C1.06228 7.08326 1.00692 7.10997 0.964134 7.15809C0.921345 7.20621 0.894094 7.2724 0.887552 7.34411C0.88101 7.41582 0.895632 7.48805 0.928643 7.5471C0.961654 7.60615 1.01076 7.64792 1.06664 7.66447H0.234375C0.172215 7.66447 0.112601 7.69552 0.0686469 7.75077C0.024693 7.80603 0 7.88097 0 7.95912V19.3428C0 19.421 0.024693 19.4959 0.0686469 19.5512C0.112601 19.6064 0.172215 19.6375 0.234375 19.6375ZM6.76285 3.05924C6.65043 2.75998 6.64176 2.38047 6.76395 2.22171C6.79698 2.18436 6.83564 2.15573 6.87764 2.13749C6.91963 2.11925 6.96411 2.11179 7.00844 2.11554C7.142 2.12052 7.27291 2.16365 7.39125 2.24165L6.76285 3.05924ZM1.8918 1.66429C1.94705 1.66421 2.00109 1.68474 2.04706 1.72328C2.09304 1.76181 2.12889 1.81662 2.15009 1.88078C2.17128 1.94493 2.17686 2.01555 2.16612 2.08369C2.15539 2.15183 2.12881 2.21444 2.08977 2.2636C2.05072 2.31275 2.00096 2.34624 1.94677 2.35984C1.89258 2.37343 1.8364 2.36651 1.78534 2.33996C1.73428 2.31341 1.69063 2.26841 1.65991 2.21067C1.62919 2.15292 1.61279 2.08502 1.61277 2.01556C1.61261 1.96941 1.61971 1.92368 1.63367 1.881C1.64763 1.83832 1.66817 1.79954 1.69411 1.76689C1.72004 1.73423 1.75086 1.70836 1.78479 1.69075C1.81872 1.67314 1.85509 1.66415 1.8918 1.66429ZM0.46875 19.0482V12.9914H9.375V19.0482H0.46875ZM8.50219 7.66447H7.75867V6.67481H8.50219V7.66447ZM4.14672 5.09154H9.08895V6.08553H4.14668L4.14672 5.09154ZM3.55996 6.6811H4.07559C4.0919 6.68108 4.10817 6.67894 4.12414 6.67472H7.28984V7.66438H3.55996V6.6811ZM3.41102 8.25366C3.43661 8.26071 3.46274 8.26428 3.48895 8.26432H7.49164C7.51328 8.26858 7.53531 8.26858 7.55695 8.26432H8.5732C8.59947 8.2643 8.62567 8.26073 8.65133 8.25366H9.375V12.4021H0.46875V8.25401L3.41102 8.25366Z" fill="black"/>
<path d="M10.8623 13.2756V12.3672C10.8623 12.289 10.8376 12.2141 10.7937 12.1588C10.7497 12.1036 10.6901 12.0725 10.6279 12.0725C10.5658 12.0725 10.5062 12.1036 10.4622 12.1588C10.4182 12.2141 10.3936 12.289 10.3936 12.3672V13.2756C10.3936 13.3538 10.4182 13.4287 10.4622 13.484C10.5062 13.5392 10.5658 13.5703 10.6279 13.5703C10.6901 13.5703 10.7497 13.5392 10.7937 13.484C10.8376 13.4287 10.8623 13.3538 10.8623 13.2756Z" fill="black"/>
<path d="M4.67505 9.78594H5.22192C5.28408 9.78594 5.3437 9.7549 5.38765 9.69964C5.43161 9.64439 5.4563 9.56944 5.4563 9.4913C5.4563 9.41316 5.43161 9.33821 5.38765 9.28295C5.3437 9.2277 5.28408 9.19666 5.22192 9.19666H4.67505C4.61289 9.19666 4.55327 9.2277 4.50932 9.28295C4.46537 9.33821 4.44067 9.41316 4.44067 9.4913C4.44067 9.56944 4.46537 9.64439 4.50932 9.69964C4.55327 9.7549 4.61289 9.78594 4.67505 9.78594Z" fill="black"/>
<path d="M5.16693 14.6047H4.72998C4.66782 14.6047 4.60821 14.6358 4.56425 14.691C4.5203 14.7463 4.49561 14.8212 4.49561 14.8994C4.49561 14.9775 4.5203 15.0525 4.56425 15.1077C4.60821 15.163 4.66782 15.194 4.72998 15.194H5.16693C5.22909 15.194 5.28871 15.163 5.33266 15.1077C5.37662 15.0525 5.40131 14.9775 5.40131 14.8994C5.40131 14.8212 5.37662 14.7463 5.33266 14.691C5.28871 14.6358 5.22909 14.6047 5.16693 14.6047Z" fill="black"/>
</svg>
