<svg width="20" height="20" viewBox="0 0 20 20" fill="none" xmlns="http://www.w3.org/2000/svg">
<path d="M17.7482 14.3789C17.7365 14.3789 17.7246 14.3795 17.7128 14.3798V12.1856C17.7128 11.4979 17.1439 10.9383 16.4446 10.9383H10.6096C10.4078 10.937 10.2086 10.9846 10.0291 11.0768C9.84954 11.1691 9.69492 11.3033 9.57836 11.4681C9.46017 11.3037 9.3045 11.17 9.12428 11.0778C8.94407 10.9857 8.74448 10.9379 8.54207 10.9383H2.67402C1.97481 10.9383 1.4059 11.4979 1.4059 12.1856V14.3805C0.625 14.4141 0 15.0489 0 15.8247V19.5416C0 19.6038 0.024693 19.6634 0.0686469 19.7073C0.112601 19.7513 0.172215 19.776 0.234375 19.776H2.70656C2.76872 19.776 2.82834 19.7513 2.87229 19.7073C2.91624 19.6634 2.94094 19.6038 2.94094 19.5416V19.0323L16.2778 19.0362V19.5415C16.2778 19.6037 16.3025 19.6633 16.3465 19.7072C16.3904 19.7512 16.45 19.7759 16.5122 19.7759H18.9844C19.0465 19.7759 19.1062 19.7512 19.1501 19.7072C19.1941 19.6633 19.2188 19.6037 19.2188 19.5415V15.8247C19.2188 15.0276 18.5591 14.3789 17.7482 14.3789ZM10.0448 11.6392C10.1189 11.565 10.207 11.5063 10.3039 11.4665C10.4009 11.4266 10.5048 11.4065 10.6096 11.4072H16.4446C16.8854 11.4072 17.244 11.7565 17.244 12.1858V14.4667C16.9628 14.5661 16.7191 14.7499 16.5462 14.9929C16.3733 15.236 16.2796 15.5264 16.2778 15.8247V16.0341L9.81184 16.0323L9.81262 12.2181C9.81103 12.111 9.83075 12.0047 9.87061 11.9053C9.91048 11.8059 9.96971 11.7155 10.0448 11.6392ZM2.67402 11.4072H8.54211C8.98289 11.4072 9.34149 11.7565 9.34149 12.1859L9.34293 16.0322L2.94094 16.0304V15.8247C2.93875 15.5085 2.83341 15.2017 2.64094 14.9509C2.44846 14.7001 2.17936 14.519 1.87453 14.4351V12.1858C1.87465 11.7565 2.23324 11.4072 2.67402 11.4072ZM2.47219 19.3072H0.46875V15.8247C0.46875 15.286 0.917969 14.8478 1.47051 14.8478C2.02305 14.8478 2.47219 15.286 2.47219 15.8247V19.3072ZM2.94094 18.5635V16.4991L16.2778 16.503V18.5677L2.94094 18.5635ZM18.75 19.3072H16.7466V15.8247C16.7466 15.286 17.1958 14.8478 17.7482 14.8478C18.3007 14.8478 18.75 15.286 18.75 15.8247V19.3072Z" fill="black"/>
<path d="M4.20215 14.8962C4.27091 14.8962 4.33812 14.8759 4.3953 14.8377C4.45247 14.7994 4.49703 14.7452 4.52334 14.6816C4.54965 14.6181 4.55654 14.5482 4.54312 14.4808C4.52971 14.4133 4.4966 14.3514 4.44798 14.3028C4.39936 14.2541 4.33741 14.221 4.26997 14.2076C4.20253 14.1942 4.13263 14.2011 4.06911 14.2274C4.00558 14.2537 3.95128 14.2983 3.91308 14.3554C3.87488 14.4126 3.85449 14.4798 3.85449 14.5486C3.85463 14.6407 3.8913 14.7291 3.95647 14.7943C4.02164 14.8594 4.10999 14.8961 4.20215 14.8962ZM4.20215 14.4275C4.2261 14.4275 4.24951 14.4346 4.26942 14.4479C4.28934 14.4612 4.30486 14.4801 4.31402 14.5022C4.32319 14.5244 4.32559 14.5487 4.32091 14.5722C4.31624 14.5957 4.30471 14.6173 4.28777 14.6342C4.27084 14.6511 4.24926 14.6627 4.22577 14.6674C4.20228 14.672 4.17793 14.6696 4.15581 14.6605C4.13368 14.6513 4.11477 14.6358 4.10146 14.6159C4.08816 14.5959 4.08105 14.5725 4.08105 14.5486C4.08105 14.5165 4.09381 14.4857 4.11652 14.463C4.13923 14.4402 4.17003 14.4275 4.20215 14.4275Z" fill="black"/>
<path d="M7.01563 14.8962C7.08439 14.8962 7.1516 14.8759 7.20877 14.8377C7.26594 14.7994 7.3105 14.7452 7.33682 14.6816C7.36313 14.6181 7.37002 14.5482 7.3566 14.4808C7.34319 14.4133 7.31008 14.3514 7.26145 14.3028C7.21283 14.2541 7.15089 14.221 7.08345 14.2076C7.01601 14.1942 6.94611 14.2011 6.88258 14.2274C6.81906 14.2537 6.76476 14.2983 6.72656 14.3554C6.68836 14.4126 6.66797 14.4798 6.66797 14.5486C6.66809 14.6408 6.70476 14.7291 6.76993 14.7943C6.8351 14.8594 6.92346 14.8961 7.01563 14.8962ZM7.01563 14.4275C7.03958 14.4275 7.06299 14.4346 7.0829 14.4479C7.10281 14.4612 7.11834 14.4801 7.1275 14.5022C7.13667 14.5244 7.13906 14.5487 7.13439 14.5722C7.12972 14.5957 7.11819 14.6173 7.10125 14.6342C7.08432 14.6511 7.06274 14.6627 7.03925 14.6674C7.01576 14.672 6.99141 14.6696 6.96928 14.6605C6.94716 14.6513 6.92825 14.6358 6.91494 14.6159C6.90163 14.5959 6.89453 14.5725 6.89453 14.5486C6.89453 14.5165 6.90729 14.4857 6.93 14.463C6.95271 14.4402 6.98351 14.4275 7.01563 14.4275Z" fill="black"/>
<path d="M4.20215 13.2383C4.27091 13.2383 4.33812 13.2179 4.3953 13.1797C4.45247 13.1415 4.49703 13.0872 4.52334 13.0237C4.54965 12.9601 4.55654 12.8902 4.54312 12.8228C4.52971 12.7554 4.4966 12.6934 4.44798 12.6448C4.39936 12.5962 4.33741 12.5631 4.26997 12.5496C4.20253 12.5362 4.13263 12.5431 4.06911 12.5694C4.00558 12.5957 3.95128 12.6403 3.91308 12.6975C3.87488 12.7546 3.85449 12.8219 3.85449 12.8906C3.85463 12.9828 3.8913 13.0711 3.95647 13.1363C4.02164 13.2015 4.10999 13.2381 4.20215 13.2383ZM4.20215 12.7695C4.2261 12.7695 4.24951 12.7766 4.26942 12.7899C4.28934 12.8032 4.30486 12.8222 4.31402 12.8443C4.32319 12.8664 4.32559 12.8908 4.32091 12.9142C4.31624 12.9377 4.30471 12.9593 4.28777 12.9762C4.27084 12.9932 4.24926 13.0047 4.22577 13.0094C4.20228 13.0141 4.17793 13.0117 4.15581 13.0025C4.13368 12.9933 4.11477 12.9778 4.10146 12.9579C4.08816 12.938 4.08105 12.9146 4.08105 12.8906C4.08105 12.8747 4.08419 12.859 4.09027 12.8443C4.09636 12.8296 4.10528 12.8162 4.11652 12.805C4.12777 12.7938 4.14112 12.7848 4.15581 12.7787C4.1705 12.7727 4.18625 12.7695 4.20215 12.7695Z" fill="black"/>
<path d="M7.01563 13.2383C7.08439 13.2383 7.1516 13.2179 7.20877 13.1797C7.26594 13.1415 7.3105 13.0872 7.33682 13.0237C7.36313 12.9601 7.37002 12.8902 7.3566 12.8228C7.34319 12.7554 7.31008 12.6934 7.26145 12.6448C7.21283 12.5962 7.15089 12.5631 7.08345 12.5496C7.01601 12.5362 6.94611 12.5431 6.88258 12.5694C6.81906 12.5957 6.76476 12.6403 6.72656 12.6975C6.68836 12.7546 6.66797 12.8219 6.66797 12.8906C6.66809 12.9828 6.70476 13.0711 6.76993 13.1363C6.8351 13.2015 6.92346 13.2382 7.01563 13.2383ZM7.01563 12.7695C7.03958 12.7695 7.06299 12.7766 7.0829 12.7899C7.10281 12.8032 7.11834 12.8222 7.1275 12.8443C7.13667 12.8664 7.13906 12.8908 7.13439 12.9142C7.12972 12.9377 7.11819 12.9593 7.10125 12.9762C7.08432 12.9932 7.06274 13.0047 7.03925 13.0094C7.01576 13.0141 6.99141 13.0117 6.96928 13.0025C6.94716 12.9933 6.92825 12.9778 6.91494 12.9579C6.90163 12.938 6.89453 12.9146 6.89453 12.8906C6.89453 12.8747 6.89766 12.859 6.90375 12.8443C6.90983 12.8296 6.91875 12.8162 6.93 12.805C6.94124 12.7938 6.95459 12.7848 6.96928 12.7787C6.98398 12.7727 6.99972 12.7695 7.01563 12.7695Z" fill="black"/>
<path d="M12.1211 14.8962C12.1899 14.8962 12.2571 14.8759 12.3142 14.8377C12.3714 14.7994 12.416 14.7452 12.4423 14.6816C12.4686 14.6181 12.4755 14.5482 12.4621 14.4808C12.4487 14.4133 12.4155 14.3514 12.3669 14.3028C12.3183 14.2541 12.2564 14.221 12.1889 14.2076C12.1215 14.1942 12.0516 14.2011 11.9881 14.2274C11.9245 14.2537 11.8702 14.2983 11.832 14.3554C11.7938 14.4126 11.7734 14.4798 11.7734 14.5486C11.7736 14.6408 11.8102 14.7291 11.8754 14.7943C11.9406 14.8594 12.0289 14.8961 12.1211 14.8962ZM12.1211 14.4275C12.145 14.4275 12.1685 14.4346 12.1884 14.4479C12.2083 14.4612 12.2238 14.4801 12.233 14.5022C12.2421 14.5244 12.2445 14.5487 12.2399 14.5722C12.2352 14.5957 12.2237 14.6173 12.2067 14.6342C12.1898 14.6511 12.1682 14.6627 12.1447 14.6674C12.1212 14.672 12.0969 14.6696 12.0748 14.6605C12.0526 14.6513 12.0337 14.6358 12.0204 14.6159C12.0071 14.5959 12 14.5725 12 14.5486C12 14.5327 12.0031 14.5169 12.0092 14.5022C12.0153 14.4876 12.0242 14.4742 12.0355 14.463C12.0467 14.4517 12.0601 14.4428 12.0748 14.4367C12.0894 14.4306 12.1052 14.4275 12.1211 14.4275Z" fill="black"/>
<path d="M14.9346 14.8962C15.0033 14.8962 15.0705 14.8759 15.1277 14.8377C15.1849 14.7994 15.2295 14.7452 15.2558 14.6816C15.2821 14.6181 15.289 14.5482 15.2755 14.4808C15.2621 14.4133 15.229 14.3514 15.1804 14.3028C15.1318 14.2541 15.0698 14.221 15.0024 14.2076C14.935 14.1942 14.8651 14.2011 14.8015 14.2274C14.738 14.2537 14.6837 14.2983 14.6455 14.3554C14.6073 14.4126 14.5869 14.4798 14.5869 14.5486C14.587 14.6407 14.6237 14.7291 14.6889 14.7943C14.7541 14.8594 14.8424 14.8961 14.9346 14.8962ZM14.9346 14.4275C14.9585 14.4275 14.9819 14.4346 15.0018 14.4479C15.0218 14.4612 15.0373 14.4801 15.0464 14.5022C15.0556 14.5244 15.058 14.5487 15.0533 14.5722C15.0487 14.5957 15.0371 14.6173 15.0202 14.6342C15.0033 14.6511 14.9817 14.6627 14.9582 14.6674C14.9347 14.672 14.9104 14.6696 14.8882 14.6605C14.8661 14.6513 14.8472 14.6358 14.8339 14.6159C14.8206 14.5959 14.8135 14.5725 14.8135 14.5486C14.8135 14.5165 14.8262 14.4857 14.8489 14.463C14.8717 14.4402 14.9025 14.4275 14.9346 14.4275Z" fill="black"/>
<path d="M12.1211 13.2383C12.1899 13.2383 12.2571 13.2179 12.3142 13.1797C12.3714 13.1415 12.416 13.0872 12.4423 13.0237C12.4686 12.9601 12.4755 12.8902 12.4621 12.8228C12.4487 12.7554 12.4155 12.6934 12.3669 12.6448C12.3183 12.5962 12.2564 12.5631 12.1889 12.5496C12.1215 12.5362 12.0516 12.5431 11.9881 12.5694C11.9245 12.5957 11.8702 12.6403 11.832 12.6975C11.7938 12.7546 11.7734 12.8219 11.7734 12.8906C11.7736 12.9828 11.8102 13.0711 11.8754 13.1363C11.9406 13.2015 12.0289 13.2382 12.1211 13.2383ZM12.1211 12.7695C12.145 12.7695 12.1685 12.7766 12.1884 12.7899C12.2083 12.8032 12.2238 12.8222 12.233 12.8443C12.2421 12.8664 12.2445 12.8908 12.2399 12.9142C12.2352 12.9377 12.2237 12.9593 12.2067 12.9762C12.1898 12.9932 12.1682 13.0047 12.1447 13.0094C12.1212 13.0141 12.0969 13.0117 12.0748 13.0025C12.0526 12.9933 12.0337 12.9778 12.0204 12.9579C12.0071 12.938 12 12.9146 12 12.8906C12 12.8747 12.0031 12.859 12.0092 12.8443C12.0153 12.8296 12.0242 12.8162 12.0355 12.805C12.0467 12.7938 12.0601 12.7848 12.0748 12.7787C12.0894 12.7727 12.1052 12.7695 12.1211 12.7695Z" fill="black"/>
<path d="M14.9346 13.2383C15.0033 13.2383 15.0705 13.2179 15.1277 13.1797C15.1849 13.1415 15.2295 13.0872 15.2558 13.0237C15.2821 12.9601 15.289 12.8902 15.2755 12.8228C15.2621 12.7554 15.229 12.6934 15.1804 12.6448C15.1318 12.5962 15.0698 12.5631 15.0024 12.5496C14.935 12.5362 14.8651 12.5431 14.8015 12.5694C14.738 12.5957 14.6837 12.6403 14.6455 12.6975C14.6073 12.7546 14.5869 12.8219 14.5869 12.8906C14.587 12.9828 14.6237 13.0711 14.6889 13.1363C14.7541 13.2015 14.8424 13.2381 14.9346 13.2383ZM14.9346 12.7695C14.9585 12.7695 14.9819 12.7766 15.0018 12.7899C15.0218 12.8032 15.0373 12.8222 15.0464 12.8443C15.0556 12.8664 15.058 12.8908 15.0533 12.9142C15.0487 12.9377 15.0371 12.9593 15.0202 12.9762C15.0033 12.9932 14.9817 13.0047 14.9582 13.0094C14.9347 13.0141 14.9104 13.0117 14.8882 13.0025C14.8661 12.9933 14.8472 12.9778 14.8339 12.9579C14.8206 12.938 14.8135 12.9146 14.8135 12.8906C14.8135 12.8747 14.8166 12.859 14.8227 12.8443C14.8288 12.8296 14.8377 12.8162 14.8489 12.805C14.8602 12.7938 14.8735 12.7848 14.8882 12.7787C14.9029 12.7727 14.9187 12.7695 14.9346 12.7695Z" fill="black"/>
<path d="M3.18539 9.72619H16.0334C16.0956 9.72619 16.1552 9.70149 16.1992 9.65754C16.2431 9.61359 16.2678 9.55397 16.2678 9.49181V3.44568C16.2678 3.38352 16.2431 3.3239 16.1992 3.27995C16.1552 3.236 16.0956 3.2113 16.0334 3.2113H3.193V0.458374C3.193 0.396214 3.16831 0.3366 3.12436 0.292646C3.0804 0.248692 3.02079 0.223999 2.95863 0.223999C2.89647 0.223999 2.83685 0.248692 2.7929 0.292646C2.74895 0.3366 2.72425 0.396214 2.72425 0.458374V3.29072C2.20505 3.34899 1.72547 3.59635 1.37699 3.98561C1.02851 4.37488 0.835523 4.87881 0.834839 5.40127V5.77916C0.834839 5.84132 0.859532 5.90093 0.903486 5.94488C0.94744 5.98884 1.00705 6.01353 1.06921 6.01353H2.15101C2.19776 6.19482 2.3 6.35697 2.44344 6.47728C2.58689 6.5976 2.76435 6.67006 2.95101 6.68455V9.49181C2.95101 9.55397 2.9757 9.61359 3.01966 9.65754C3.06361 9.70149 3.12323 9.72619 3.18539 9.72619ZM10.702 9.25744L10.586 9.14478L12.2268 7.88388L13.8348 9.25744H10.702ZM10.0289 9.25744H5.61043L7.9007 7.19177L10.0289 9.25744ZM15.7991 9.25744H14.5565L12.3868 7.40408C12.3459 7.36917 12.2943 7.34937 12.2406 7.34798C12.1868 7.34659 12.1343 7.36371 12.0917 7.39646L10.2461 8.81482L8.07 6.70267C8.02732 6.66123 7.97048 6.63756 7.911 6.63647C7.85152 6.63538 7.79385 6.65695 7.74968 6.69681L4.91058 9.25744H3.41976V6.57673C3.52596 6.51638 3.6191 6.43551 3.69375 6.33882C3.76839 6.24212 3.82306 6.13155 3.85457 6.01353H4.84804C4.9102 6.01353 4.96982 5.98884 5.01377 5.94488C5.05772 5.90093 5.08242 5.84132 5.08242 5.77916V5.40127C5.08232 5.06502 5.00232 4.73361 4.849 4.43435C4.69568 4.13509 4.47343 3.87656 4.20058 3.68005H15.7991V9.25744ZM1.30359 5.40127C1.30359 4.96232 1.47796 4.54136 1.78834 4.23098C2.09872 3.9206 2.51968 3.74623 2.95863 3.74623C3.39757 3.74623 3.81854 3.9206 4.12892 4.23098C4.4393 4.54136 4.61367 4.96232 4.61367 5.40127V5.54478H1.30359V5.40127ZM2.6557 6.01353H3.34988C3.31544 6.07537 3.26511 6.12689 3.20409 6.16276C3.14307 6.19863 3.07357 6.21754 3.00279 6.21754C2.93201 6.21754 2.86251 6.19863 2.80149 6.16276C2.74046 6.12689 2.69013 6.07537 2.6557 6.01353Z" fill="black"/>
<path d="M10.2643 7.45215C10.4652 7.45215 10.6615 7.39258 10.8285 7.28099C10.9956 7.16939 11.1257 7.01077 11.2026 6.82519C11.2795 6.63961 11.2996 6.4354 11.2604 6.23839C11.2212 6.04137 11.1245 5.86041 10.9824 5.71837C10.8404 5.57633 10.6594 5.4796 10.4624 5.44041C10.2654 5.40123 10.0612 5.42134 9.87562 5.49821C9.69004 5.57508 9.53142 5.70525 9.41982 5.87227C9.30822 6.03929 9.24866 6.23565 9.24866 6.43652C9.24896 6.70579 9.35606 6.96395 9.54646 7.15435C9.73686 7.34475 9.99501 7.45185 10.2643 7.45215ZM10.2643 5.88965C10.3724 5.88965 10.4782 5.92172 10.5681 5.98181C10.658 6.04191 10.7281 6.12732 10.7695 6.22724C10.8109 6.32717 10.8217 6.43713 10.8006 6.54321C10.7795 6.6493 10.7275 6.74674 10.651 6.82322C10.5745 6.89971 10.4771 6.95179 10.371 6.97289C10.2649 6.99399 10.1549 6.98316 10.055 6.94177C9.95507 6.90038 9.86966 6.83028 9.80957 6.74035C9.74948 6.65042 9.71741 6.54469 9.71741 6.43652C9.71758 6.29154 9.77526 6.15254 9.87778 6.05002C9.9803 5.9475 10.1193 5.88982 10.2643 5.88965Z" fill="black"/>
</svg>
