<svg width="20" height="20" viewBox="0 0 20 20" fill="none" xmlns="http://www.w3.org/2000/svg">
<path d="M18.2031 0H1.01563C0.74636 0.000310154 0.488212 0.107413 0.297812 0.297812C0.107413 0.488212 0.000310154 0.74636 0 1.01563V18.2031C0.000310154 18.4724 0.107413 18.7305 0.297812 18.9209C0.488212 19.1113 0.74636 19.2184 1.01563 19.2188H18.2031C18.4724 19.2184 18.7305 19.1113 18.9209 18.9209C19.1113 18.7305 19.2184 18.4724 19.2188 18.2031V1.01563C19.2184 0.74636 19.1113 0.488212 18.9209 0.297812C18.7305 0.107413 18.4724 0.000310154 18.2031 0ZM7.16067 11.1039H0.46875V7.88602H7.16067V11.1039ZM7.16067 7.41727H0.46875V4.19945H7.16067V7.41727ZM0.46875 11.5726H7.16067V14.7904H0.46875V11.5726ZM7.62942 0.46875H13.042V18.75H7.62942V0.46875ZM1.01563 0.46875H7.16067V3.7307H0.46875V1.01563C0.468905 0.870632 0.526572 0.731623 0.629097 0.629097C0.731623 0.526572 0.870633 0.468905 1.01563 0.46875ZM0.46875 18.2031V15.2592H7.16067V18.75H1.01563C0.870633 18.7498 0.731623 18.6922 0.629097 18.5897C0.526572 18.4871 0.468905 18.3481 0.46875 18.2031ZM18.75 18.2031C18.7498 18.3481 18.6922 18.4871 18.5897 18.5897C18.4871 18.6922 18.3481 18.7498 18.2031 18.75H13.5107V0.46875H18.2031C18.3481 0.468905 18.4871 0.526572 18.5897 0.629097C18.6922 0.731623 18.7498 0.870632 18.75 1.01563V18.2031Z" fill="black"/>
<path d="M12.1204 7.41724C12.0582 7.41724 11.9986 7.44193 11.9546 7.48588C11.9107 7.52984 11.886 7.58945 11.886 7.65161V9.48188C11.886 9.54404 11.9107 9.60366 11.9546 9.64761C11.9986 9.69157 12.0582 9.71626 12.1204 9.71626C12.1825 9.71626 12.2421 9.69157 12.2861 9.64761C12.33 9.60366 12.3547 9.54404 12.3547 9.48188V7.65161C12.3547 7.58945 12.33 7.52984 12.2861 7.48588C12.2421 7.44193 12.1825 7.41724 12.1204 7.41724Z" fill="black"/>
<path d="M14.3582 7.41724C14.296 7.41724 14.2364 7.44193 14.1924 7.48588C14.1485 7.52984 14.1238 7.58945 14.1238 7.65161V9.48188C14.1238 9.54404 14.1485 9.60366 14.1924 9.64761C14.2364 9.69157 14.296 9.71626 14.3582 9.71626C14.4203 9.71626 14.4799 9.69157 14.5239 9.64761C14.5678 9.60366 14.5925 9.54404 14.5925 9.48188V7.65161C14.5925 7.58945 14.5678 7.52984 14.5239 7.48588C14.4799 7.44193 14.4203 7.41724 14.3582 7.41724Z" fill="black"/>
</svg>
