<svg width="162" height="82" viewBox="0 0 162 82" fill="none" xmlns="http://www.w3.org/2000/svg">
<g opacity="0.2">
<path d="M141 0H19L32.5 20.5H130.5L141 0Z" fill="#BEBEBE"/>
<rect x="31" y="20" width="113" height="13" fill="#BEBEBE"/>
<rect x="144" y="33" width="49" height="13" transform="rotate(90 144 33)" fill="#BEBEBE"/>
<rect width="64" height="13" transform="matrix(4.37114e-08 1 1 -4.37114e-08 18 18)" fill="#BEBEBE"/>
<path d="M62.5 20L62 22L57 11L58.5 0H62.5V20Z" fill="#BEBEBE"/>
<rect x="16" width="43" height="14" fill="#BEBEBE"/>
<path d="M97.5 20L98 22L103 11L101.5 0H97.5V20Z" fill="#BEBEBE"/>
<rect x="100" width="62" height="14" fill="#BEBEBE"/>
<rect x="162" y="14" width="41" height="16" transform="rotate(90 162 14)" fill="#BEBEBE"/>
<rect width="55" height="16" transform="matrix(4.37114e-08 1 1 -4.37114e-08 0 0)" fill="#BEBEBE"/>
<rect x="32" y="33" width="98" height="1" fill="#BEBEBE"/>
<rect x="131" y="33" width="49" height="0.999998" transform="rotate(90 131 33)" fill="#BEBEBE"/>
<rect width="49" height="0.999998" transform="matrix(4.37114e-08 1 1 -4.37114e-08 31 33)" fill="#BEBEBE"/>
<path d="M32 34H130L127 39H35L32 34Z" fill="#BEBEBE"/>
<path d="M130 34L130 82L125 80.5306L125 35.4694L130 34Z" fill="#BEBEBE"/>
<path d="M32 34L32 82L37 80.5306L37 35.4694L32 34Z" fill="#BEBEBE"/>
<rect opacity="0.78" x="72" y="17" width="19" height="15" rx="2" fill="#BEBEBE"/>
<rect x="73" y="18" width="17" height="13" rx="2" fill="#BEBEBE"/>
<path d="M18 14H59L62 22H20.5287L18 14Z" fill="#BEBEBE"/>
<path d="M141 14H100L98 22H138.471L141 14Z" fill="#BEBEBE"/>
<path d="M146 55L146 14L138 14L138 52.4713L146 55Z" fill="#BEBEBE"/>
<path d="M16 55L16 14L24 14L24 52.4713L16 55Z" fill="#BEBEBE"/>
<circle cx="78" cy="22" r="1.5" stroke="#BEBEBE"/>
<circle cx="84" cy="22" r="1.5" stroke="#BEBEBE"/>
<circle cx="84" cy="27" r="1.5" stroke="#BEBEBE"/>
<circle cx="78" cy="27" r="1.5" stroke="#BEBEBE"/>
<path d="M41 22L38 14V0" stroke="#636363"/>
<path d="M118 22L121 14V0" stroke="#636363"/>
<path d="M138 37L146.727 34L162 34" stroke="#636363"/>
<path d="M24 37L15.2727 34L0 34" stroke="#636363"/>
</g>
<g opacity="0.2">
<path d="M141 0H19L32.5 20.5H130.5L141 0Z" fill="#BEBEBE"/>
<rect x="31" y="20" width="113" height="13" fill="#BEBEBE"/>
<path d="M62.5 20L62 22L57 11L58.5 0H62.5V20Z" fill="#BEBEBE"/>
<rect x="16" width="43" height="14" fill="#BEBEBE"/>
<path d="M97.5 20L98 22L103 11L101.5 0H97.5V20Z" fill="#BEBEBE"/>
<rect x="100" width="62" height="14" fill="#BEBEBE"/>
<rect x="162" y="14" width="41" height="16" transform="rotate(90 162 14)" fill="#BEBEBE"/>
<rect width="55" height="16" transform="matrix(4.37114e-08 1 1 -4.37114e-08 0 0)" fill="#BEBEBE"/>
<rect x="32" y="33" width="98" height="1" fill="#BEBEBE"/>
<rect x="131" y="33" width="49" height="0.999998" transform="rotate(90 131 33)" fill="#BEBEBE"/>
<rect width="49" height="0.999998" transform="matrix(4.37114e-08 1 1 -4.37114e-08 31 33)" fill="#BEBEBE"/>
<path d="M32 34H130L127 39H35L32 34Z" fill="#BEBEBE"/>
<path d="M32 34L32 82L37 80.5306L37 35.4694L32 34Z" fill="#BEBEBE"/>
<rect opacity="0.78" x="72" y="17" width="19" height="15" rx="2" fill="#BEBEBE"/>
<rect x="73" y="18" width="17" height="13" rx="2" fill="#BEBEBE"/>
<path d="M18 14H59L62 22H20.5287L18 14Z" fill="#BEBEBE"/>
<path d="M141 14H100L98 22H138.471L141 14Z" fill="#BEBEBE"/>
<path d="M146 55L146 14L138 14L138 52.4713L146 55Z" fill="#BEBEBE"/>
<path d="M16 55L16 14L24 14L24 52.4713L16 55Z" fill="#BEBEBE"/>
<circle cx="78" cy="22" r="1.5" stroke="#BEBEBE"/>
<circle cx="84" cy="22" r="1.5" stroke="#BEBEBE"/>
<circle cx="84" cy="27" r="1.5" stroke="#BEBEBE"/>
<circle cx="78" cy="27" r="1.5" stroke="#BEBEBE"/>
<path d="M41 22L38 14V0" stroke="#636363"/>
<path d="M118 22L121 14V0" stroke="#636363"/>
<path d="M138 37L146.727 34L162 34" stroke="#636363"/>
<path d="M24 37L15.2727 34L0 34" stroke="#636363"/>
</g>
<rect opacity="0.02" x="162" y="14" width="41" height="16" transform="rotate(90 162 14)" fill="#BEBEBE"/>
<rect opacity="0.2" width="55" height="16" transform="matrix(4.37114e-08 1 1 -4.37114e-08 0 0)" fill="#BEBEBE"/>
<rect opacity="0.2" x="131" y="33" width="49" height="0.999998" transform="rotate(90 131 33)" fill="#BEBEBE"/>
<rect opacity="0.2" width="49" height="0.999998" transform="matrix(4.37114e-08 1 1 -4.37114e-08 31 33)" fill="#BEBEBE"/>
<path opacity="0.2" d="M32 34L32 82L37 80.5306L37 35.4694L32 34Z" fill="#BEBEBE"/>
<path opacity="0.2" d="M146 55L146 14L138 14L138 52.4713L146 55Z" fill="#BEBEBE"/>
<path opacity="0.2" d="M16 55L16 14L24 14L24 52.4713L16 55Z" fill="#BEBEBE"/>
<path d="M141 0H19L32.5 20.5H130.5L141 0Z" fill="#4F4F4F"/>
<path d="M18 20H144V33H18V20Z" fill="#C4C9CC"/>
<path d="M62.5 20L62 22L57 11L58.5 0H62.5V20Z" fill="#0C0C0C"/>
<path d="M0 0L59 0V14H0V0Z" fill="#383E42"/>
<path d="M97.5 20L98 22L103 11L101.5 0H97.5V20Z" fill="#0C0C0C"/>
<rect x="100" width="62" height="14" fill="#383E42"/>
<path d="M18 33H144V34H18V33Z" fill="#A3BAB8"/>
<rect opacity="0.78" x="72" y="17" width="19" height="15" rx="2" fill="#747474"/>
<rect x="73" y="18" width="17" height="13" rx="2" fill="#F2F2F2"/>
<path d="M0 14H59L62 22H0V14Z" fill="#919191"/>
<path d="M162 14H100.977L98 22H162V14Z" fill="#919191"/>
<circle cx="78" cy="22" r="1.5" stroke="black"/>
<circle cx="84" cy="22" r="1.5" stroke="black"/>
<circle cx="84" cy="27" r="1.5" stroke="black"/>
<circle cx="78" cy="27" r="1.5" stroke="black"/>
<path d="M41 22L38 14V0" stroke="#636363"/>
<path d="M118 22L121 14V0" stroke="#636363"/>
<path opacity="0.2" d="M138 37L146.727 34L162 34" stroke="#636363"/>
<path opacity="0.2" d="M24 37L15.2727 34L0 34" stroke="#636363"/>
<path d="M18 34H144L140.143 39H18L18 34Z" fill="#859BA5"/>
</svg>
