<svg width="42" height="65" viewBox="0 0 42 65" fill="none" xmlns="http://www.w3.org/2000/svg">
<path opacity="0.3" d="M21.7176 0.0964355C9.10628 0.0964355 0.824219 6.30798 0.824219 16.2841C0.824219 20.8957 4.30645 24.1897 8.35336 24.1897C12.5885 24.1897 15.8825 20.8957 15.8825 16.6605C15.8825 12.7078 12.5885 8.4726 6.65931 9.69609C9.10628 5.46095 13.9061 3.861 17.3883 3.861C23.7881 3.861 26.2351 8.37849 26.2351 13.6489C26.2351 24.6603 13.7179 28.4248 19.6471 44.236H22.4705C22.4705 29.8365 41.2934 27.2955 41.2934 13.4607C41.2934 3.48455 31.5055 0.0964355 21.7176 0.0964355ZM21.0588 48.9417C16.7295 48.9417 13.0591 52.6122 13.0591 56.9415C13.0591 61.2707 16.7295 64.9412 21.0588 64.9412C25.388 64.9412 29.0585 61.2707 29.0585 56.9415C29.0585 52.6122 25.388 48.9417 21.0588 48.9417Z" fill="black"/>
</svg>
