<svg width="225" height="215" viewBox="0 0 225 215" fill="none" xmlns="http://www.w3.org/2000/svg">
<path d="M163 0.5V139.5L138 173.5H69.5H1V34.5L37.5 0.5H163Z" fill="#EEF8FF"/>
<path d="M138 173.5V34.5M138 173.5L163 139.5V0.5M138 173.5H69.5M138 34.5L163 0.5M138 34.5H69.5M163 0.5H37.5L1 34.5M1 34.5V173.5H69.5M1 34.5H69.5M69.5 173.5V34.5" stroke="#78BEFF"/>
<path d="M79.5 100H92.5V113" stroke="black"/>
<path d="M56.5 100H43.5V113" stroke="black"/>
<path d="M0.646447 186.646C0.451184 186.842 0.451184 187.158 0.646447 187.354L3.82843 190.536C4.02369 190.731 4.34027 190.731 4.53553 190.536C4.7308 190.34 4.7308 190.024 4.53553 189.828L1.70711 187L4.53553 184.172C4.7308 183.976 4.7308 183.66 4.53553 183.464C4.34027 183.269 4.02369 183.269 3.82843 183.464L0.646447 186.646ZM137.354 187.354C137.549 187.158 137.549 186.842 137.354 186.646L134.172 183.464C133.976 183.269 133.66 183.269 133.464 183.464C133.269 183.66 133.269 183.976 133.464 184.172L136.293 187L133.464 189.828C133.269 190.024 133.269 190.34 133.464 190.536C133.66 190.731 133.976 190.731 134.172 190.536L137.354 187.354ZM1 187.5H1.97143V186.5H1V187.5ZM5.85714 187.5H11.6857V186.5H5.85714V187.5ZM19.4571 187.5H21.4V186.5H19.4571V187.5ZM25.2857 187.5H31.1143V186.5H25.2857V187.5ZM38.8857 187.5H40.8286V186.5H38.8857V187.5ZM44.7143 187.5H50.5429V186.5H44.7143V187.5ZM58.3143 187.5H60.2571V186.5H58.3143V187.5ZM64.1429 187.5H69.9714V186.5H64.1429V187.5ZM77.7429 187.5H79.6857V186.5H77.7429V187.5ZM83.5714 187.5H89.4V186.5H83.5714V187.5ZM97.1714 187.5H99.1143V186.5H97.1714V187.5ZM103 187.5H108.829V186.5H103V187.5ZM116.6 187.5H118.543V186.5H116.6V187.5ZM122.429 187.5H128.257V186.5H122.429V187.5ZM136.029 187.5H137V186.5H136.029V187.5Z" fill="black"/>
<path d="M174.354 0.646447C174.158 0.451184 173.842 0.451184 173.646 0.646447L170.464 3.82843C170.269 4.02369 170.269 4.34027 170.464 4.53553C170.66 4.7308 170.976 4.7308 171.172 4.53553L174 1.70711L176.828 4.53553C177.024 4.7308 177.34 4.7308 177.536 4.53553C177.731 4.34027 177.731 4.02369 177.536 3.82843L174.354 0.646447ZM173.646 137.354C173.842 137.549 174.158 137.549 174.354 137.354L177.536 134.172C177.731 133.976 177.731 133.66 177.536 133.464C177.34 133.269 177.024 133.269 176.828 133.464L174 136.293L171.172 133.464C170.976 133.269 170.66 133.269 170.464 133.464C170.269 133.66 170.269 133.976 170.464 134.172L173.646 137.354ZM173.5 1L173.5 1.97143L174.5 1.97143L174.5 1L173.5 1ZM173.5 5.85714L173.5 11.6857L174.5 11.6857L174.5 5.85714L173.5 5.85714ZM173.5 19.4571L173.5 21.4L174.5 21.4L174.5 19.4571L173.5 19.4571ZM173.5 25.2857L173.5 31.1143L174.5 31.1143L174.5 25.2857L173.5 25.2857ZM173.5 38.8857L173.5 40.8286L174.5 40.8286L174.5 38.8857L173.5 38.8857ZM173.5 44.7143L173.5 50.5429L174.5 50.5429L174.5 44.7143L173.5 44.7143ZM173.5 58.3143L173.5 60.2571L174.5 60.2571L174.5 58.3143L173.5 58.3143ZM173.5 64.1429L173.5 69.9714L174.5 69.9714L174.5 64.1429L173.5 64.1429ZM173.5 77.7429L173.5 79.6857L174.5 79.6857L174.5 77.7429L173.5 77.7429ZM173.5 83.5714L173.5 89.4L174.5 89.4L174.5 83.5714L173.5 83.5714ZM173.5 97.1714L173.5 99.1143L174.5 99.1143L174.5 97.1714L173.5 97.1714ZM173.5 103L173.5 108.829L174.5 108.829L174.5 103L173.5 103ZM173.5 116.6L173.5 118.543L174.5 118.543L174.5 116.6L173.5 116.6ZM173.5 122.429L173.5 128.257L174.5 128.257L174.5 122.429L173.5 122.429ZM173.5 136.029L173.5 137L174.5 137L174.5 136.029L173.5 136.029Z" fill="black"/>
<path d="M148.723 180.101C148.778 180.371 149.043 180.546 149.313 180.49L153.722 179.589C153.992 179.534 154.167 179.27 154.112 178.999C154.056 178.728 153.792 178.554 153.522 178.609L149.603 179.41L148.802 175.491C148.746 175.221 148.482 175.046 148.212 175.102C147.941 175.157 147.767 175.421 147.822 175.692L148.723 180.101ZM172.822 144.9C172.767 144.63 172.503 144.455 172.232 144.51L167.823 145.412C167.553 145.467 167.378 145.731 167.434 146.002C167.489 146.272 167.753 146.447 168.024 146.391L171.943 145.59L172.744 149.509C172.799 149.78 173.063 149.954 173.334 149.899C173.604 149.844 173.779 149.579 173.723 149.309L172.822 144.9ZM149.63 180.276L150.208 179.401L149.374 178.85L148.796 179.725L149.63 180.276ZM152.52 175.901L155.988 170.651L155.154 170.1L151.686 175.35L152.52 175.901ZM160.612 163.651L161.768 161.901L160.933 161.35L159.777 163.1L160.612 163.651ZM164.08 158.401L167.548 153.151L166.713 152.6L163.245 157.85L164.08 158.401ZM172.172 146.151L172.75 145.276L171.915 144.725L171.337 145.6L172.172 146.151Z" fill="black"/>
<path opacity="0.5" d="M50.2486 212.758H51.2997V211H56.1825V212.747H57.2337V210.07H56.4098V203.727H51.9247L51.7543 206.799C51.6442 208.823 51.2145 209.658 50.728 210.07H50.2486V212.758ZM52.0206 210.07C52.4361 209.406 52.7166 208.337 52.8054 206.799L52.919 204.672H55.3587V210.07H52.0206ZM57.9208 211H58.2617C59.4513 211 59.8881 210.119 59.9734 208.315L60.0586 206.462H61.8413V211H62.8817V205.545H59.0749L58.979 207.96C58.9116 209.643 58.7198 210.08 58.1126 210.08H57.9173L57.9208 211ZM65.3382 209.512V205.545H64.2978V211H65.4519L67.8453 207.03V211H68.8858V205.545H67.7424L65.3382 209.512ZM71.3539 205.545H70.3134V211H71.3539V208.734H73.7154V211H74.7523V205.545H73.7154V207.815H71.3539V205.545ZM77.2132 205.545H76.1728V211H77.2132V208.734H79.5748V211H80.6117V205.545H79.5748V207.815H77.2132V205.545ZM83.6195 211.121C84.5215 211.121 85.0293 210.663 85.2317 210.254H85.2743V211H86.3113V207.378C86.3113 205.79 85.0613 205.474 84.1948 205.474C83.2076 205.474 82.2985 205.872 81.9434 206.866L82.9412 207.094C83.0975 206.707 83.4952 206.334 84.209 206.334C84.8944 206.334 85.2459 206.692 85.2459 207.31V207.335C85.2459 207.722 84.8482 207.715 83.8681 207.829C82.8347 207.95 81.7765 208.219 81.7765 209.459C81.7765 210.531 82.5826 211.121 83.6195 211.121ZM83.8503 210.268C83.2502 210.268 82.8169 209.999 82.8169 209.473C82.8169 208.905 83.3212 208.702 83.9355 208.621C84.28 208.575 85.0968 208.482 85.2495 208.33V209.033C85.2495 209.679 84.7346 210.268 83.8503 210.268Z" fill="black"/>
<path opacity="0.5" d="M177.895 166.727V174H185.945V166.727H184.862V173.048H182.469V166.727H181.382V173.048H178.982V166.727H177.895ZM188.598 172.512V168.545H187.558V174H188.712L191.105 170.03V174H192.146V168.545H191.002L188.598 172.512ZM193.573 176.045H194.635V173.151H194.699C194.891 173.499 195.281 174.107 196.276 174.107C197.597 174.107 198.555 173.048 198.555 171.283C198.555 169.515 197.582 168.474 196.265 168.474C195.253 168.474 194.887 169.092 194.699 169.43H194.61V168.545H193.573V176.045ZM194.614 171.273C194.614 170.133 195.111 169.376 196.038 169.376C197 169.376 197.483 170.19 197.483 171.273C197.483 172.366 196.986 173.201 196.038 173.201C195.125 173.201 194.614 172.42 194.614 171.273ZM200.786 172.512V168.545H199.745V174H200.899L203.293 170.03V174H204.333V168.545H203.19L200.786 172.512ZM206.801 168.545H205.761V174H206.801V171.734H209.163V174H210.2V168.545H209.163V170.815H206.801V168.545ZM213.207 174.121C214.109 174.121 214.617 173.663 214.82 173.254H214.862V174H215.899V170.378C215.899 168.79 214.649 168.474 213.783 168.474C212.795 168.474 211.886 168.872 211.531 169.866L212.529 170.094C212.685 169.707 213.083 169.334 213.797 169.334C214.482 169.334 214.834 169.692 214.834 170.31V170.335C214.834 170.722 214.436 170.715 213.456 170.829C212.423 170.95 211.364 171.219 211.364 172.459C211.364 173.531 212.17 174.121 213.207 174.121ZM213.438 173.268C212.838 173.268 212.405 172.999 212.405 172.473C212.405 171.905 212.909 171.702 213.523 171.621C213.868 171.575 214.685 171.482 214.837 171.33V172.033C214.837 172.679 214.322 173.268 213.438 173.268Z" fill="black"/>
<path opacity="0.5" d="M188.799 77H191.587C193.277 77 194.04 76.1584 194.04 75.0433C194.04 73.9176 193.252 73.282 192.531 73.2429V73.1719C193.199 73.0014 193.756 72.5469 193.756 71.6378C193.756 70.5618 193.011 69.7273 191.462 69.7273H188.799V77ZM189.896 76.0589V73.7294H191.519C192.4 73.7294 192.95 74.2976 192.95 74.9901C192.95 75.6009 192.535 76.0589 191.48 76.0589H189.896ZM189.896 72.8736V70.6612H191.395C192.265 70.6612 192.68 71.1193 192.68 71.723C192.68 72.4261 192.105 72.8736 191.366 72.8736H189.896ZM196.297 73.4205V71.5455H195.257V77H197.64C198.975 77 199.721 76.2259 199.721 75.1996C199.721 74.152 198.975 73.4205 197.64 73.4205H196.297ZM200.495 77H201.556V71.5455H200.495V77ZM196.297 74.3366H197.64C198.25 74.3366 198.687 74.706 198.687 75.2315C198.687 75.7287 198.25 76.0838 197.64 76.0838H196.297V74.3366ZM205.279 77.1101C206.568 77.1101 207.403 76.3359 207.52 75.2741H206.486C206.351 75.8636 205.893 76.2116 205.286 76.2116C204.388 76.2116 203.809 75.4624 203.809 74.2727C203.809 73.1044 204.398 72.3693 205.286 72.3693C205.961 72.3693 206.373 72.7955 206.486 73.3068H207.52C207.406 72.206 206.508 71.4744 205.268 71.4744C203.731 71.4744 202.736 72.6321 202.736 74.2976C202.736 75.9418 203.695 77.1101 205.279 77.1101ZM210.953 77.1101C212.49 77.1101 213.495 75.9844 213.495 74.2976C213.495 72.6001 212.49 71.4744 210.953 71.4744C209.415 71.4744 208.41 72.6001 208.41 74.2976C208.41 75.9844 209.415 77.1101 210.953 77.1101ZM210.956 76.2188C209.951 76.2188 209.483 75.3416 209.483 74.294C209.483 73.25 209.951 72.3622 210.956 72.3622C211.954 72.3622 212.423 73.25 212.423 74.294C212.423 75.3416 211.954 76.2188 210.956 76.2188ZM214.024 72.4616H215.81V77H216.847V72.4616H218.626V71.5455H214.024V72.4616ZM221.082 77.1207C221.984 77.1207 222.492 76.6626 222.695 76.2543H222.737V77H223.774V73.3778C223.774 71.7905 222.524 71.4744 221.658 71.4744C220.67 71.4744 219.761 71.8722 219.406 72.8665L220.404 73.0938C220.56 72.7067 220.958 72.3338 221.672 72.3338C222.357 72.3338 222.709 72.6925 222.709 73.3104V73.3352C222.709 73.7223 222.311 73.7152 221.331 73.8288C220.298 73.9496 219.239 74.2195 219.239 75.4588C219.239 76.5312 220.045 77.1207 221.082 77.1207ZM221.313 76.2685C220.713 76.2685 220.28 75.9986 220.28 75.473C220.28 74.9048 220.784 74.7024 221.398 74.6207C221.743 74.5746 222.56 74.4822 222.712 74.3295V75.0327C222.712 75.679 222.197 76.2685 221.313 76.2685Z" fill="black"/>
<circle cx="69.5" cy="186.5" r="7.5" fill="#FF0000"/>
<path d="M67.9653 189.154L68.3077 188.017H70.2697L70.6122 189.154H72.3536L70.3916 183.21H68.1858L66.2238 189.154H67.9653ZM68.6734 186.809L69.2655 184.847H69.312L69.904 186.809H68.6734Z" fill="white"/>
<circle cx="173.5" cy="74.5" r="7.5" fill="#FF0000"/>
<path d="M176.416 73.9819C176.278 72.3873 175.11 71.4832 173.491 71.4832C171.758 71.4832 170.389 72.6384 170.389 74.7855C170.389 76.9233 171.72 78.0879 173.491 78.0879C175.374 78.0879 176.328 76.782 176.416 75.6896L174.646 75.6771C174.558 76.2264 174.169 76.5686 173.528 76.5686C172.678 76.5686 172.185 75.9659 172.185 74.7855C172.185 73.668 172.662 73.0025 173.541 73.0025C174.213 73.0025 174.596 73.3981 174.646 73.9819H176.416Z" fill="white"/>
<circle cx="161.713" cy="163.5" r="7.5" fill="#FF0000"/>
<path d="M159.596 166H162.394C163.685 166 164.484 165.295 164.484 164.317C164.484 163.478 163.865 162.929 163.102 162.9V162.842C163.79 162.706 164.251 162.198 164.251 161.542C164.251 160.636 163.532 160.056 162.173 160.056H159.596V166ZM161.21 164.711V163.458H161.988C162.478 163.458 162.777 163.69 162.777 164.108C162.777 164.505 162.507 164.711 161.964 164.711H161.21ZM161.21 162.459V161.321H161.895C162.295 161.321 162.591 161.525 162.591 161.89C162.591 162.256 162.295 162.459 161.871 162.459H161.21Z" fill="white"/>
</svg>
