<svg width="105" height="105" viewBox="0 0 105 105" fill="none" xmlns="http://www.w3.org/2000/svg">
<g clip-path="url(#clip0)">
<rect x="0.486328" width="104.487" height="104.487" rx="3.6791" fill="white"/>
<rect x="38.8516" width="28.5705" height="1.6326" fill="#769698"/>
<g filter="url(#filter0_d)">
<rect x="38.8525" width="28.5705" height="19.5912" fill="#D0D5D8"/>
<path d="M104.789 36.975L104.789 66.7757L74.804 66.7757C74.0928 66.7757 73.5163 66.1992 73.5163 65.4881L73.5163 38.2627C73.5163 37.5515 74.0928 36.975 74.804 36.975L104.789 36.975Z" fill="white" stroke="#4B7EFF" stroke-width="0.36791"/>
<g filter="url(#filter1_d)">
<rect x="67.4229" width="37.5499" height="22.0401" rx="0.816301" fill="#D4E0E8"/>
</g>
<rect x="67.4463" y="20.603" width="16.9239" height="1.47164" rx="0.735821" fill="#769698"/>
<rect x="104.938" y="66.9597" width="37.5499" height="22.0401" rx="0.816301" transform="rotate(90 104.938 66.9597)" fill="#D4E0E8"/>
<rect x="84.3701" y="66.9597" width="37.5269" height="1.47164" rx="0.73582" transform="rotate(90 84.3701 66.9597)" fill="#769698"/>
<path fill-rule="evenodd" clip-rule="evenodd" d="M86.0216 48.9793C86.0235 48.9112 86.0519 48.8466 86.1007 48.7992C86.1496 48.7517 86.215 48.7252 86.2831 48.7252C86.3512 48.7252 86.4166 48.7517 86.4654 48.7992C86.5142 48.8466 86.5426 48.9112 86.5446 48.9793V49.6596L87.1339 49.3194C87.1938 49.2873 87.2638 49.2797 87.3292 49.2983C87.3946 49.3169 87.4502 49.3602 87.4842 49.4191C87.5182 49.4779 87.5279 49.5477 87.5114 49.6136C87.4948 49.6796 87.4533 49.7365 87.3955 49.7723L86.8062 50.1127L87.3955 50.4528C87.4261 50.4696 87.4531 50.4922 87.4748 50.5196C87.4965 50.5469 87.5125 50.5782 87.5219 50.6118C87.5313 50.6454 87.5339 50.6805 87.5295 50.7151C87.5252 50.7497 87.5139 50.7831 87.4965 50.8133C87.479 50.8435 87.4557 50.8699 87.4279 50.8909C87.4001 50.912 87.3683 50.9273 87.3345 50.9359C87.3007 50.9445 87.2655 50.9462 87.2311 50.9411C87.1966 50.9359 87.1635 50.9238 87.1337 50.9057L86.5446 50.5657V51.246C86.5456 51.281 86.5396 51.3158 86.5269 51.3484C86.5142 51.381 86.4951 51.4108 86.4707 51.4359C86.4463 51.4609 86.4171 51.4809 86.3849 51.4945C86.3527 51.5081 86.3181 51.5151 86.2831 51.5151C86.2481 51.5151 86.2134 51.5081 86.1812 51.4945C86.149 51.4809 86.1198 51.4609 86.0954 51.4359C86.0711 51.4108 86.052 51.381 86.0393 51.3484C86.0266 51.3158 86.0206 51.281 86.0216 51.246V50.5657L85.4322 50.9059C85.4025 50.9237 85.3694 50.9355 85.3351 50.9404C85.3007 50.9454 85.2657 50.9434 85.2321 50.9347C85.1985 50.926 85.167 50.9107 85.1393 50.8897C85.1117 50.8687 85.0886 50.8424 85.0712 50.8123C85.0538 50.7822 85.0426 50.749 85.0382 50.7146C85.0338 50.6802 85.0363 50.6452 85.0456 50.6117C85.0549 50.5783 85.0707 50.547 85.0921 50.5197C85.1136 50.4924 85.1403 50.4697 85.1706 50.4528L85.7599 50.1127L85.1706 49.7725C85.1105 49.7378 85.0667 49.6806 85.0488 49.6136C85.0308 49.5465 85.0403 49.4751 85.075 49.4151C85.1097 49.355 85.1669 49.3112 85.2339 49.2932C85.301 49.2753 85.3724 49.2847 85.4324 49.3194L86.0216 49.6596V48.9793Z" fill="#4B7EFF"/>
<path fill-rule="evenodd" clip-rule="evenodd" d="M88.5706 52.7479V48.37C88.5706 47.7349 89.0511 47.2203 89.6437 47.2203C90.2362 47.2203 90.7167 47.7349 90.7167 48.37V52.7481C90.9944 52.9704 91.1962 53.2735 91.2942 53.6155C91.3922 53.9574 91.3815 54.3214 91.2637 54.657C91.1459 54.9926 90.9267 55.2834 90.6365 55.4891C90.3463 55.6948 89.9994 55.8053 89.6437 55.8053C89.288 55.8053 88.941 55.6948 88.6508 55.4891C88.3606 55.2834 88.1415 54.9926 88.0237 54.657C87.9058 54.3214 87.8952 53.9574 87.9932 53.6155C88.0912 53.2735 88.2929 52.9704 88.5706 52.7481V52.7479ZM89.4252 50.9593C89.6819 51.0258 89.9746 51.1018 90.2875 51.0966V50.6492H89.8583C89.8014 50.6492 89.7468 50.6266 89.7065 50.5863C89.6663 50.5461 89.6437 50.4915 89.6437 50.4346C89.6437 50.3776 89.6663 50.323 89.7065 50.2828C89.7468 50.2426 89.8014 50.2199 89.8583 50.2199H90.2875V49.7907H89.8583C89.8014 49.7907 89.7468 49.7681 89.7065 49.7279C89.6663 49.6876 89.6437 49.633 89.6437 49.5761C89.6437 49.5192 89.6663 49.4646 89.7065 49.4243C89.7468 49.3841 89.8014 49.3615 89.8583 49.3615H90.2875V48.9323H89.8583C89.8014 48.9323 89.7468 48.9096 89.7065 48.8694C89.6663 48.8291 89.6437 48.7746 89.6437 48.7176C89.6437 48.6607 89.6663 48.6061 89.7065 48.5659C89.7468 48.5256 89.8014 48.503 89.8583 48.503H90.2875V48.37C90.2875 47.989 89.9993 47.6802 89.6437 47.6802C89.2881 47.6802 88.9998 47.989 88.9998 48.37V50.8685C89.1256 50.8814 89.2685 50.9185 89.4252 50.9591V50.9593Z" fill="#4B7EFF"/>
<rect x="104.938" y="22.0746" width="14.7164" height="22.0401" rx="0.816301" transform="rotate(90 104.938 22.0746)" fill="#D4E0E8"/>
<rect x="84.3701" y="20.6029" width="16.1881" height="1.47164" rx="0.735821" transform="rotate(90 84.3701 20.6029)" fill="#769698"/>
<g filter="url(#filter2_d)">
<rect x="41.3018" y="3.2652" width="15.5097" height="14.6934" rx="0.816301" fill="white"/>
<rect x="41.5058" y="3.46927" width="15.1016" height="14.2853" rx="0.612226" stroke="#383E42" stroke-width="0.408151"/>
</g>
<circle cx="45.3826" cy="13.8771" r="1.6326" fill="#383E42"/>
<circle cx="52.7303" cy="13.8771" r="1.6326" fill="#383E42"/>
<g filter="url(#filter3_d)">
<rect x="1.30273" y="0.00012207" width="37.5499" height="22.0401" rx="0.816301" fill="#D4E0E8"/>
</g>
<rect x="1.30273" y="20.4075" width="37.5499" height="1.6326" rx="0.816301" fill="#769698"/>
<circle cx="52.7303" cy="7.34671" r="1.6326" fill="#383E42"/>
<circle cx="60.0761" cy="7.3467" r="0.816301" fill="#383E42"/>
<circle cx="60.0761" cy="9.79561" r="0.816301" fill="#383E42"/>
<circle cx="60.0761" cy="12.2445" r="0.816301" fill="#383E42"/>
<circle cx="60.0761" cy="14.6934" r="0.816301" fill="#383E42"/>
<circle cx="45.3826" cy="7.34671" r="1.6326" fill="#383E42"/>
</g>
<g filter="url(#filter4_d)">
<rect x="38.749" width="12.509" height="37.5269" rx="0.735821" transform="rotate(90 38.749 0)" fill="#3B627C"/>
</g>
<rect x="36.541" y="12.509" width="0.735821" height="2.94328" transform="rotate(90 36.541 12.509)" fill="#3B627C"/>
<g filter="url(#filter5_d)">
<rect width="12.509" height="37.5269" rx="0.735821" transform="matrix(4.37114e-08 1 1 -4.37114e-08 67.4453 0)" fill="#3B627C"/>
</g>
<rect width="0.735821" height="2.94328" transform="matrix(4.37114e-08 1 1 -4.37114e-08 69.6533 12.509)" fill="#3B627C"/>
</g>
<defs>
<filter id="filter0_d" x="-1.64055" y="0" width="109.557" height="110.396" filterUnits="userSpaceOnUse" color-interpolation-filters="sRGB">
<feFlood flood-opacity="0" result="BackgroundImageFix"/>
<feColorMatrix in="SourceAlpha" type="matrix" values="0 0 0 0 0 0 0 0 0 0 0 0 0 0 0 0 0 0 127 0" result="hardAlpha"/>
<feOffset dy="2.94328"/>
<feGaussianBlur stdDeviation="1.47164"/>
<feColorMatrix type="matrix" values="0 0 0 0 0 0 0 0 0 0 0 0 0 0 0 0 0 0 0.25 0"/>
<feBlend mode="normal" in2="BackgroundImageFix" result="effect1_dropShadow"/>
<feBlend mode="normal" in="SourceGraphic" in2="effect1_dropShadow" result="shape"/>
</filter>
<filter id="filter1_d" x="66.6066" y="-0.816301" width="39.1825" height="23.6727" filterUnits="userSpaceOnUse" color-interpolation-filters="sRGB">
<feFlood flood-opacity="0" result="BackgroundImageFix"/>
<feColorMatrix in="SourceAlpha" type="matrix" values="0 0 0 0 0 0 0 0 0 0 0 0 0 0 0 0 0 0 127 0" result="hardAlpha"/>
<feOffset/>
<feGaussianBlur stdDeviation="0.408151"/>
<feColorMatrix type="matrix" values="0 0 0 0 0 0 0 0 0 0 0 0 0 0 0 0 0 0 0.25 0"/>
<feBlend mode="normal" in2="BackgroundImageFix" result="effect1_dropShadow"/>
<feBlend mode="normal" in="SourceGraphic" in2="effect1_dropShadow" result="shape"/>
</filter>
<filter id="filter2_d" x="40.4855" y="2.4489" width="17.1423" height="16.326" filterUnits="userSpaceOnUse" color-interpolation-filters="sRGB">
<feFlood flood-opacity="0" result="BackgroundImageFix"/>
<feColorMatrix in="SourceAlpha" type="matrix" values="0 0 0 0 0 0 0 0 0 0 0 0 0 0 0 0 0 0 127 0" result="hardAlpha"/>
<feOffset/>
<feGaussianBlur stdDeviation="0.408151"/>
<feColorMatrix type="matrix" values="0 0 0 0 0.186962 0 0 0 0 0.315672 0 0 0 0 0.370833 0 0 0 0.25 0"/>
<feBlend mode="normal" in2="BackgroundImageFix" result="effect1_dropShadow"/>
<feBlend mode="normal" in="SourceGraphic" in2="effect1_dropShadow" result="shape"/>
</filter>
<filter id="filter3_d" x="0.486433" y="-0.816179" width="39.1825" height="23.6727" filterUnits="userSpaceOnUse" color-interpolation-filters="sRGB">
<feFlood flood-opacity="0" result="BackgroundImageFix"/>
<feColorMatrix in="SourceAlpha" type="matrix" values="0 0 0 0 0 0 0 0 0 0 0 0 0 0 0 0 0 0 127 0" result="hardAlpha"/>
<feOffset/>
<feGaussianBlur stdDeviation="0.408151"/>
<feColorMatrix type="matrix" values="0 0 0 0 0 0 0 0 0 0 0 0 0 0 0 0 0 0 0.25 0"/>
<feBlend mode="normal" in2="BackgroundImageFix" result="effect1_dropShadow"/>
<feBlend mode="normal" in="SourceGraphic" in2="effect1_dropShadow" result="shape"/>
</filter>
<filter id="filter4_d" x="-1.7216" y="0" width="43.4134" height="18.3955" filterUnits="userSpaceOnUse" color-interpolation-filters="sRGB">
<feFlood flood-opacity="0" result="BackgroundImageFix"/>
<feColorMatrix in="SourceAlpha" type="matrix" values="0 0 0 0 0 0 0 0 0 0 0 0 0 0 0 0 0 0 127 0" result="hardAlpha"/>
<feOffset dy="2.94328"/>
<feGaussianBlur stdDeviation="1.47164"/>
<feColorMatrix type="matrix" values="0 0 0 0 0 0 0 0 0 0 0 0 0 0 0 0 0 0 0.25 0"/>
<feBlend mode="normal" in2="BackgroundImageFix" result="effect1_dropShadow"/>
<feBlend mode="normal" in="SourceGraphic" in2="effect1_dropShadow" result="shape"/>
</filter>
<filter id="filter5_d" x="64.502" y="0" width="43.4134" height="18.3955" filterUnits="userSpaceOnUse" color-interpolation-filters="sRGB">
<feFlood flood-opacity="0" result="BackgroundImageFix"/>
<feColorMatrix in="SourceAlpha" type="matrix" values="0 0 0 0 0 0 0 0 0 0 0 0 0 0 0 0 0 0 127 0" result="hardAlpha"/>
<feOffset dy="2.94328"/>
<feGaussianBlur stdDeviation="1.47164"/>
<feColorMatrix type="matrix" values="0 0 0 0 0 0 0 0 0 0 0 0 0 0 0 0 0 0 0.25 0"/>
<feBlend mode="normal" in2="BackgroundImageFix" result="effect1_dropShadow"/>
<feBlend mode="normal" in="SourceGraphic" in2="effect1_dropShadow" result="shape"/>
</filter>
<clipPath id="clip0">
<rect x="0.486328" width="104.487" height="104.487" rx="3.6791" fill="white"/>
</clipPath>
</defs>
</svg>
