<svg width="106" height="105" viewBox="0 0 106 105" fill="none" xmlns="http://www.w3.org/2000/svg">
<g opacity="0.2">
<g clip-path="url(#clip0)">
<rect x="0.945312" width="104.487" height="104.487" rx="3.6791" fill="white"/>
<rect x="39.3115" width="28.5705" height="1.6326" fill="#769698"/>
<rect x="39.3115" width="28.5705" height="19.5912" fill="#D0D5D8"/>
<path d="M105.248 36.975L105.248 66.7757L75.263 66.7757C74.5518 66.7757 73.9753 66.1992 73.9753 65.488L73.9753 38.2627C73.9753 37.5515 74.5518 36.975 75.263 36.975L105.248 36.975Z" fill="white" stroke="#4B7EFF" stroke-width="0.36791"/>
<g filter="url(#filter0_d)">
<rect x="67.8818" width="37.5499" height="22.0401" rx="0.816301" fill="#D4E0E8"/>
</g>
<g filter="url(#filter1_d)">
<rect x="0.945312" y="73.582" width="73.5821" height="23.5463" rx="0.816301" transform="rotate(-90 0.945312 73.582)" fill="#D4E0E8"/>
</g>
<rect x="67.9053" y="20.603" width="16.9239" height="1.47164" rx="0.735821" fill="#769698"/>
<rect x="23.0205" y="73.582" width="52.9791" height="1.47164" rx="0.735821" transform="rotate(-90 23.0205 73.582)" fill="#769698"/>
<rect x="105.397" y="66.96" width="37.5499" height="22.0401" rx="0.816301" transform="rotate(90 105.397 66.96)" fill="#D4E0E8"/>
<rect x="84.8291" y="66.96" width="37.5269" height="1.47164" rx="0.73582" transform="rotate(90 84.8291 66.96)" fill="#769698"/>
<path fill-rule="evenodd" clip-rule="evenodd" d="M86.4805 48.9792C86.4825 48.9112 86.5109 48.8465 86.5597 48.7991C86.6086 48.7516 86.674 48.7251 86.7421 48.7251C86.8101 48.7251 86.8755 48.7516 86.9244 48.7991C86.9732 48.8465 87.0016 48.9112 87.0036 48.9792V49.6595L87.5929 49.3194C87.6528 49.2872 87.7228 49.2797 87.7882 49.2983C87.8536 49.3168 87.9092 49.3602 87.9432 49.419C87.9772 49.4779 87.9869 49.5476 87.9704 49.6136C87.9538 49.6795 87.9123 49.7364 87.8545 49.7722L87.2652 50.1126L87.8545 50.4528C87.8851 50.4695 87.912 50.4922 87.9338 50.5195C87.9555 50.5468 87.9715 50.5782 87.9809 50.6117C87.9903 50.6453 87.9929 50.6805 87.9885 50.7151C87.9841 50.7497 87.9729 50.783 87.9554 50.8132C87.938 50.8434 87.9147 50.8698 87.8869 50.8909C87.859 50.9119 87.8273 50.9272 87.7935 50.9358C87.7597 50.9444 87.7245 50.9462 87.69 50.941C87.6556 50.9358 87.6224 50.9238 87.5927 50.9056L87.0036 50.5657V51.246C87.0046 51.281 86.9985 51.3158 86.9858 51.3484C86.9732 51.381 86.9541 51.4107 86.9297 51.4358C86.9053 51.4609 86.8761 51.4808 86.8439 51.4944C86.8117 51.5081 86.777 51.5151 86.7421 51.5151C86.7071 51.5151 86.6724 51.5081 86.6402 51.4944C86.608 51.4808 86.5788 51.4609 86.5544 51.4358C86.53 51.4107 86.5109 51.381 86.4983 51.3484C86.4856 51.3158 86.4795 51.281 86.4805 51.246V50.5657L85.8912 50.9058C85.8614 50.9237 85.8284 50.9354 85.7941 50.9403C85.7597 50.9453 85.7247 50.9434 85.6911 50.9347C85.6575 50.9259 85.626 50.9106 85.5983 50.8896C85.5707 50.8686 85.5475 50.8423 85.5302 50.8122C85.5128 50.7822 85.5016 50.749 85.4972 50.7145C85.4928 50.6801 85.4953 50.6451 85.5046 50.6117C85.5138 50.5782 85.5297 50.5469 85.5511 50.5197C85.5726 50.4924 85.5993 50.4696 85.6296 50.4528L86.2189 50.1126L85.6296 49.7724C85.5695 49.7377 85.5257 49.6805 85.5078 49.6135C85.4898 49.5465 85.4993 49.4751 85.534 49.415C85.5687 49.3549 85.6259 49.3111 85.6929 49.2932C85.7599 49.2752 85.8313 49.2847 85.8914 49.3194L86.4805 49.6595V48.9792Z" fill="#4B7EFF"/>
<path fill-rule="evenodd" clip-rule="evenodd" d="M89.0296 52.7478V48.3699C89.0296 47.7349 89.5101 47.2202 90.1027 47.2202C90.6952 47.2202 91.1757 47.7349 91.1757 48.3699V52.748C91.4534 52.9704 91.6552 53.2734 91.7532 53.6154C91.8511 53.9573 91.8405 54.3213 91.7227 54.6569C91.6049 54.9926 91.3857 55.2833 91.0955 55.489C90.8053 55.6947 90.4584 55.8052 90.1027 55.8052C89.7469 55.8052 89.4 55.6947 89.1098 55.489C88.8196 55.2833 88.6004 54.9926 88.4826 54.6569C88.3648 54.3213 88.3542 53.9573 88.4522 53.6154C88.5501 53.2734 88.7519 52.9704 89.0296 52.748V52.7478ZM89.8842 50.9592C90.1409 51.0258 90.4336 51.1017 90.7465 51.0966V50.6491H90.3173C90.2604 50.6491 90.2058 50.6265 90.1655 50.5863C90.1253 50.546 90.1027 50.4914 90.1027 50.4345C90.1027 50.3776 90.1253 50.323 90.1655 50.2827C90.2058 50.2425 90.2604 50.2199 90.3173 50.2199H90.7465V49.7907H90.3173C90.2604 49.7907 90.2058 49.768 90.1655 49.7278C90.1253 49.6875 90.1027 49.633 90.1027 49.576C90.1027 49.5191 90.1253 49.4645 90.1655 49.4243C90.2058 49.384 90.2604 49.3614 90.3173 49.3614H90.7465V48.9322H90.3173C90.2604 48.9322 90.2058 48.9096 90.1655 48.8693C90.1253 48.8291 90.1027 48.7745 90.1027 48.7176C90.1027 48.6607 90.1253 48.6061 90.1655 48.5658C90.2058 48.5256 90.2604 48.503 90.3173 48.503H90.7465V48.3699C90.7465 47.989 90.4583 47.6801 90.1027 47.6801C89.747 47.6801 89.4588 47.989 89.4588 48.3699V50.8684C89.5846 50.8813 89.7275 50.9185 89.8842 50.959V50.9592Z" fill="#4B7EFF"/>
<rect x="0.945312" y="104.486" width="30.9045" height="23.5463" rx="0.816301" transform="rotate(-90 0.945312 104.486)" fill="#D4E0E8"/>
<rect x="23.0205" y="104.486" width="30.9045" height="1.47164" rx="0.735822" transform="rotate(-90 23.0205 104.486)" fill="#769698"/>
<rect x="105.397" y="22.0747" width="14.7164" height="22.0401" rx="0.816301" transform="rotate(90 105.397 22.0747)" fill="#D4E0E8"/>
<rect x="84.8291" y="20.603" width="16.1881" height="1.47164" rx="0.735821" transform="rotate(90 84.8291 20.603)" fill="#769698"/>
<rect x="24.5576" y="0.034668" width="15.3853" height="22.0401" rx="0.816301" fill="#D4E0E8"/>
<rect x="23.0195" y="20.603" width="16.9239" height="1.47164" rx="0.735821" fill="#769698"/>
<g filter="url(#filter2_d)">
<rect x="45.8311" y="3.26514" width="15.5097" height="14.6934" rx="0.816301" fill="white"/>
<rect x="46.0351" y="3.46921" width="15.1016" height="14.2853" rx="0.612226" stroke="#383E42" stroke-width="0.408151"/>
</g>
<circle cx="49.9119" cy="13.8772" r="1.6326" fill="#383E42"/>
<circle cx="57.2586" cy="13.8772" r="1.6326" fill="#383E42"/>
<circle cx="57.2586" cy="7.34696" r="1.6326" fill="#383E42"/>
<circle cx="49.9119" cy="7.34696" r="1.6326" fill="#383E42"/>
<g filter="url(#filter3_d)">
<rect x="0.945312" y="23.5464" width="12.509" height="23.5463" rx="0.735821" fill="#3B627C"/>
</g>
<g filter="url(#filter4_d)">
<rect x="0.945312" y="47.8281" width="12.509" height="56.6582" rx="0.735821" fill="#3B627C"/>
</g>
<rect x="13.4541" y="27.2256" width="0.735821" height="2.94328" fill="#3B627C"/>
<rect x="39.208" width="29.4328" height="1.47164" fill="#284152"/>
<rect x="13.4541" y="50.7715" width="0.735821" height="2.94328" fill="#3B627C"/>
<g filter="url(#filter5_d)">
<rect x="39.9443" width="12.509" height="38.9985" rx="0.735821" transform="rotate(90 39.9443 0)" fill="#3B627C"/>
</g>
<rect x="37.7363" y="12.5088" width="0.735821" height="2.94328" transform="rotate(90 37.7363 12.5088)" fill="#3B627C"/>
<g filter="url(#filter6_d)">
<rect width="12.509" height="37.5269" rx="0.735821" transform="matrix(4.37114e-08 1 1 -4.37114e-08 67.9053 0)" fill="#3B627C"/>
</g>
<rect width="0.735821" height="2.94328" transform="matrix(4.37114e-08 1 1 -4.37114e-08 70.1123 12.5088)" fill="#3B627C"/>
</g>
</g>
<path d="M49.4452 65.5784H54.1725V65.2644C54.2386 61.4627 55.3295 59.7603 58.1394 58.0247C61.0981 56.2396 62.9162 53.7272 62.9162 50.0082C62.9162 44.6364 58.8501 41 52.784 41C47.2138 41 42.751 44.2562 42.5361 50.2066H47.5609C47.7593 46.7025 50.2551 45.1653 52.784 45.1653C55.5939 45.1653 57.8749 47.033 57.8749 49.9586C57.8749 52.4214 56.3377 54.157 54.3708 55.3801C51.2964 57.2644 49.4783 59.1322 49.4452 65.2644V65.5784ZM51.9411 75.628C53.7427 75.628 55.2468 74.1569 55.2468 72.3222C55.2468 70.5206 53.7427 69.033 51.9411 69.033C50.1229 69.033 48.6353 70.5206 48.6353 72.3222C48.6353 74.1569 50.1229 75.628 51.9411 75.628Z" fill="#444444"/>
<defs>
<filter id="filter0_d" x="67.0655" y="-0.816301" width="39.1825" height="23.6727" filterUnits="userSpaceOnUse" color-interpolation-filters="sRGB">
<feFlood flood-opacity="0" result="BackgroundImageFix"/>
<feColorMatrix in="SourceAlpha" type="matrix" values="0 0 0 0 0 0 0 0 0 0 0 0 0 0 0 0 0 0 127 0" result="hardAlpha"/>
<feOffset/>
<feGaussianBlur stdDeviation="0.408151"/>
<feColorMatrix type="matrix" values="0 0 0 0 0 0 0 0 0 0 0 0 0 0 0 0 0 0 0.25 0"/>
<feBlend mode="normal" in2="BackgroundImageFix" result="effect1_dropShadow"/>
<feBlend mode="normal" in="SourceGraphic" in2="effect1_dropShadow" result="shape"/>
</filter>
<filter id="filter1_d" x="0.129011" y="-0.816301" width="25.1789" height="75.2147" filterUnits="userSpaceOnUse" color-interpolation-filters="sRGB">
<feFlood flood-opacity="0" result="BackgroundImageFix"/>
<feColorMatrix in="SourceAlpha" type="matrix" values="0 0 0 0 0 0 0 0 0 0 0 0 0 0 0 0 0 0 127 0" result="hardAlpha"/>
<feOffset/>
<feGaussianBlur stdDeviation="0.408151"/>
<feColorMatrix type="matrix" values="0 0 0 0 0 0 0 0 0 0 0 0 0 0 0 0 0 0 0.25 0"/>
<feBlend mode="normal" in2="BackgroundImageFix" result="effect1_dropShadow"/>
<feBlend mode="normal" in="SourceGraphic" in2="effect1_dropShadow" result="shape"/>
</filter>
<filter id="filter2_d" x="45.0148" y="2.44884" width="17.1423" height="16.326" filterUnits="userSpaceOnUse" color-interpolation-filters="sRGB">
<feFlood flood-opacity="0" result="BackgroundImageFix"/>
<feColorMatrix in="SourceAlpha" type="matrix" values="0 0 0 0 0 0 0 0 0 0 0 0 0 0 0 0 0 0 127 0" result="hardAlpha"/>
<feOffset/>
<feGaussianBlur stdDeviation="0.408151"/>
<feColorMatrix type="matrix" values="0 0 0 0 0.186962 0 0 0 0 0.315672 0 0 0 0 0.370833 0 0 0 0.25 0"/>
<feBlend mode="normal" in2="BackgroundImageFix" result="effect1_dropShadow"/>
<feBlend mode="normal" in="SourceGraphic" in2="effect1_dropShadow" result="shape"/>
</filter>
<filter id="filter3_d" x="-1.99797" y="23.5464" width="18.3955" height="29.4328" filterUnits="userSpaceOnUse" color-interpolation-filters="sRGB">
<feFlood flood-opacity="0" result="BackgroundImageFix"/>
<feColorMatrix in="SourceAlpha" type="matrix" values="0 0 0 0 0 0 0 0 0 0 0 0 0 0 0 0 0 0 127 0" result="hardAlpha"/>
<feOffset dy="2.94328"/>
<feGaussianBlur stdDeviation="1.47164"/>
<feColorMatrix type="matrix" values="0 0 0 0 0 0 0 0 0 0 0 0 0 0 0 0 0 0 0.25 0"/>
<feBlend mode="normal" in2="BackgroundImageFix" result="effect1_dropShadow"/>
<feBlend mode="normal" in="SourceGraphic" in2="effect1_dropShadow" result="shape"/>
</filter>
<filter id="filter4_d" x="-1.99797" y="47.8281" width="18.3955" height="62.5448" filterUnits="userSpaceOnUse" color-interpolation-filters="sRGB">
<feFlood flood-opacity="0" result="BackgroundImageFix"/>
<feColorMatrix in="SourceAlpha" type="matrix" values="0 0 0 0 0 0 0 0 0 0 0 0 0 0 0 0 0 0 127 0" result="hardAlpha"/>
<feOffset dy="2.94328"/>
<feGaussianBlur stdDeviation="1.47164"/>
<feColorMatrix type="matrix" values="0 0 0 0 0 0 0 0 0 0 0 0 0 0 0 0 0 0 0.25 0"/>
<feBlend mode="normal" in2="BackgroundImageFix" result="effect1_dropShadow"/>
<feBlend mode="normal" in="SourceGraphic" in2="effect1_dropShadow" result="shape"/>
</filter>
<filter id="filter5_d" x="-1.99699" y="0" width="44.8851" height="18.3955" filterUnits="userSpaceOnUse" color-interpolation-filters="sRGB">
<feFlood flood-opacity="0" result="BackgroundImageFix"/>
<feColorMatrix in="SourceAlpha" type="matrix" values="0 0 0 0 0 0 0 0 0 0 0 0 0 0 0 0 0 0 127 0" result="hardAlpha"/>
<feOffset dy="2.94328"/>
<feGaussianBlur stdDeviation="1.47164"/>
<feColorMatrix type="matrix" values="0 0 0 0 0 0 0 0 0 0 0 0 0 0 0 0 0 0 0.25 0"/>
<feBlend mode="normal" in2="BackgroundImageFix" result="effect1_dropShadow"/>
<feBlend mode="normal" in="SourceGraphic" in2="effect1_dropShadow" result="shape"/>
</filter>
<filter id="filter6_d" x="64.962" y="0" width="43.4134" height="18.3955" filterUnits="userSpaceOnUse" color-interpolation-filters="sRGB">
<feFlood flood-opacity="0" result="BackgroundImageFix"/>
<feColorMatrix in="SourceAlpha" type="matrix" values="0 0 0 0 0 0 0 0 0 0 0 0 0 0 0 0 0 0 127 0" result="hardAlpha"/>
<feOffset dy="2.94328"/>
<feGaussianBlur stdDeviation="1.47164"/>
<feColorMatrix type="matrix" values="0 0 0 0 0 0 0 0 0 0 0 0 0 0 0 0 0 0 0.25 0"/>
<feBlend mode="normal" in2="BackgroundImageFix" result="effect1_dropShadow"/>
<feBlend mode="normal" in="SourceGraphic" in2="effect1_dropShadow" result="shape"/>
</filter>
<clipPath id="clip0">
<rect x="0.945312" width="104.487" height="104.487" rx="3.6791" fill="white"/>
</clipPath>
</defs>
</svg>
