<svg width="208" height="147" viewBox="0 0 208 147" fill="none" xmlns="http://www.w3.org/2000/svg">
<circle cx="104.041" cy="100.041" r="69" transform="rotate(-22.3297 104.041 100.041)" fill="url(#paint0_linear)"/>
<circle cx="104.041" cy="100.041" r="69" transform="rotate(-22.3297 104.041 100.041)" fill="url(#paint1_linear)"/>
<circle cx="104.041" cy="100.04" r="78.834" transform="rotate(-22.3297 104.041 100.04)" stroke="#FFB571"/>
<path d="M105.693 117.362L111.888 114.818L111.761 114.508C109.235 108.064 109.742 104.598 113.119 99.8925C116.527 95.2646 117.579 90.1869 115.236 84.4824C111.928 76.4289 103.626 72.961 94.5398 76.6929C86.1766 80.128 81.6632 88.0152 84.8807 96.9504L91.3854 94.2787C89.2705 88.0279 92.5118 83.8006 96.745 82.0619C101.598 80.0687 106.836 81.6579 108.914 86.7171C110.6 90.8213 109.459 94.7287 107.192 97.8018C103.394 102.951 101.604 107.186 105.566 117.052L105.693 117.362ZM115.274 131.286C117.829 130.236 119.061 127.287 118.012 124.731C116.962 122.176 114.012 120.944 111.457 121.994C108.902 123.043 107.67 125.993 108.719 128.548C109.769 131.104 112.718 132.336 115.274 131.286Z" fill="white"/>
<defs>
<linearGradient id="paint0_linear" x1="104.041" y1="31.041" x2="104.041" y2="169.041" gradientUnits="userSpaceOnUse">
<stop stop-color="#FFB571"/>
<stop offset="1" stop-color="#4F341C"/>
</linearGradient>
<linearGradient id="paint1_linear" x1="104.041" y1="31.041" x2="104.041" y2="169.041" gradientUnits="userSpaceOnUse">
<stop stop-color="#FFB571"/>
<stop offset="1" stop-color="#4F341C"/>
</linearGradient>
</defs>
</svg>
