<svg width="231" height="267" viewBox="0 0 231 267" fill="none" xmlns="http://www.w3.org/2000/svg">
<circle cx="49.5268" cy="85.5286" r="120.32" transform="rotate(-22.3297 49.5268 85.5286)" fill="url(#paint0_linear)"/>
<circle cx="49.5268" cy="85.5271" r="120.32" transform="rotate(-22.3297 49.5268 85.5271)" fill="url(#paint1_linear)"/>
<circle cx="49.5268" cy="85.5267" r="137.84" transform="rotate(-22.3297 49.5268 85.5267)" stroke="#FFB571"/>
<path d="M52.4073 115.732L63.2098 111.295L62.988 110.755C58.5831 99.5185 59.4672 93.4741 65.3554 85.2691C71.2992 77.1992 73.1332 68.3449 69.0475 58.3975C63.2794 44.3542 48.8018 38.3069 32.958 44.8145C18.3746 50.8044 10.5043 64.5578 16.1149 80.1388L27.4576 75.4799C23.7697 64.5801 29.4217 57.2086 36.8034 54.1767C45.2654 50.701 54.3995 53.4723 58.0231 62.2944C60.9626 69.4511 58.9742 76.2646 55.0205 81.6234C48.3984 90.6033 45.2767 97.9875 52.1854 115.192L52.4073 115.732ZM69.1132 140.012C73.5693 138.182 75.7177 133.039 73.8874 128.582C72.0572 124.126 66.9138 121.978 62.4577 123.808C58.0017 125.639 55.8533 130.782 57.6836 135.238C59.5138 139.694 64.6572 141.842 69.1132 140.012Z" fill="white"/>
<defs>
<linearGradient id="paint0_linear" x1="49.5267" y1="-34.7915" x2="49.5267" y2="205.849" gradientUnits="userSpaceOnUse">
<stop stop-color="#FFB571"/>
<stop offset="1" stop-color="#4F341C"/>
</linearGradient>
<linearGradient id="paint1_linear" x1="49.5267" y1="-34.7929" x2="49.5267" y2="205.847" gradientUnits="userSpaceOnUse">
<stop stop-color="#FFB571"/>
<stop offset="1" stop-color="#4F341C"/>
</linearGradient>
</defs>
</svg>
