<svg width="122" height="121" viewBox="0 0 122 121" fill="none" xmlns="http://www.w3.org/2000/svg">
<circle cx="84.4999" cy="36.5008" r="56.3187" transform="rotate(-22.3297 84.4999 36.5008)" fill="url(#paint0_linear)"/>
<circle cx="84.4999" cy="36.5003" r="56.3187" transform="rotate(-22.3297 84.4999 36.5003)" fill="url(#paint1_linear)"/>
<circle cx="84.5" cy="36.5003" r="64.2535" transform="rotate(-22.3297 84.5 36.5003)" stroke="#FFB571"/>
<path d="M85.8484 50.6384L90.9048 48.5615L90.801 48.3087C88.7392 43.0491 89.153 40.2199 91.9091 36.3794C94.6912 32.602 95.5497 28.4576 93.6373 23.8015C90.9374 17.2281 84.1608 14.3975 76.7447 17.4436C69.9186 20.2473 66.2347 26.6849 68.8609 33.978L74.1701 31.7973C72.4439 26.6954 75.0894 23.245 78.5447 21.8258C82.5055 20.1989 86.7809 21.4961 88.477 25.6255C89.8529 28.9753 88.9222 32.1646 87.0716 34.6729C83.972 38.8761 82.5108 42.3325 85.7446 50.3855L85.8484 50.6384ZM93.6681 62.0032C95.7538 61.1465 96.7594 58.739 95.9027 56.6532C95.046 54.5675 92.6386 53.5619 90.5528 54.4186C88.467 55.2753 87.4614 57.6827 88.3181 59.7685C89.1748 61.8543 91.5823 62.8599 93.6681 62.0032Z" fill="white"/>
<defs>
<linearGradient id="paint0_linear" x1="84.4999" y1="-19.8179" x2="84.4999" y2="92.8196" gradientUnits="userSpaceOnUse">
<stop stop-color="#FFB571"/>
<stop offset="1" stop-color="#4F341C"/>
</linearGradient>
<linearGradient id="paint1_linear" x1="84.4999" y1="-19.8184" x2="84.4999" y2="92.8191" gradientUnits="userSpaceOnUse">
<stop stop-color="#FFB571"/>
<stop offset="1" stop-color="#4F341C"/>
</linearGradient>
</defs>
</svg>
