<svg width="168" height="27" viewBox="0 0 168 27" fill="none" xmlns="http://www.w3.org/2000/svg">
<path d="M25.4903 26H20.6707L18.9617 14.8912L13.2535 26.0342H12.2964L6.58818 14.8912L4.87913 26H0.0596104L3.1359 7.54227H7.40852L12.7749 18.0017L18.2097 7.54227H22.4482L25.4903 26ZM77.4752 26H71.4593L65.5118 17.1813V26H60.5214V7.54227H65.5118V15.7457L71.1175 7.54227H76.7916L70.5364 16.361L77.4752 26ZM87.4598 26.5127C85.6368 26.5127 83.9733 26.0911 82.4693 25.248C80.9882 24.3821 79.8146 23.1972 78.9487 21.6932C78.1056 20.1892 77.684 18.5258 77.684 16.7028C77.684 13.9455 78.6183 11.644 80.4868 9.79821C82.3554 7.95244 84.6911 7.02956 87.4939 7.02956C89.8866 7.02956 91.9375 7.72457 93.6465 9.11459C95.3556 10.4818 96.438 12.3048 96.8937 14.5836H91.9375C91.5273 13.6948 90.9234 12.9998 90.1259 12.4985C89.3511 11.9744 88.4624 11.7123 87.4598 11.7123C86.1153 11.7123 84.9873 12.1909 84.0758 13.148C83.1871 14.105 82.7428 15.3014 82.7428 16.737C82.7428 18.1726 83.1985 19.3803 84.11 20.3601C85.0215 21.34 86.1381 21.8299 87.4598 21.8299C88.4624 21.8299 89.3511 21.5679 90.1259 21.0438C90.9007 20.4969 91.5045 19.7221 91.9375 18.7195H96.9621C96.5063 21.0665 95.4125 22.9579 93.6807 24.3935C91.9489 25.8063 89.8752 26.5127 87.4598 26.5127ZM113.677 7.54227H116.479V26H111.66V16.2242L103.08 26H100.243V7.54227H105.063V17.2155L113.677 7.54227ZM145.37 26H140.551L138.842 14.8912L133.134 26.0342H132.176L126.468 14.8912L124.759 26H119.94L123.016 7.54227H127.289L132.655 18.0017L138.09 7.54227H142.328L145.37 26ZM163.751 7.50809H167.477V25.9658H163.546L163.136 24.3251C161.45 25.7835 159.456 26.5127 157.155 26.5127C154.374 26.5127 152.062 25.5898 150.216 23.7441C148.393 21.8755 147.481 19.5398 147.481 16.737C147.481 13.9569 148.393 11.644 150.216 9.79821C152.062 7.95244 154.374 7.02956 157.155 7.02956C159.502 7.02956 161.518 7.78154 163.205 9.2855L163.751 7.50809ZM153.942 20.3601C154.899 21.3172 156.095 21.7957 157.531 21.7957C158.989 21.7957 160.197 21.3172 161.154 20.3601C162.111 19.4031 162.589 18.1953 162.589 16.737C162.589 15.2786 162.111 14.0708 161.154 13.1138C160.197 12.1567 159 11.6782 157.565 11.6782C156.608 11.6782 155.742 11.906 154.967 12.3618C154.215 12.7947 153.622 13.3986 153.19 14.1734C152.757 14.9254 152.54 15.7799 152.54 16.737C152.54 18.1953 153.007 19.4031 153.942 20.3601Z" fill="white"/>
<path d="M49.9277 1.2729H54.9097V25.9543H49.6534L49.105 23.7604C46.8501 25.7105 44.1839 26.6856 41.1064 26.6856C37.3889 26.6856 34.2961 25.4515 31.828 22.9834C29.3903 20.4848 28.1715 17.3615 28.1715 13.6136C28.1715 9.89615 29.3903 6.80336 31.828 4.33522C34.2961 1.86708 37.3889 0.633008 41.1064 0.633008C44.2449 0.633008 46.9415 1.63855 49.1964 3.64962L49.9277 1.2729ZM36.81 18.4585C38.0898 19.7382 39.6895 20.3781 41.6091 20.3781C43.5593 20.3781 45.1742 19.7382 46.454 18.4585C47.7338 17.1787 48.3737 15.5637 48.3737 13.6136C48.3737 11.6635 47.7338 10.0485 46.454 8.76873C45.1742 7.48895 43.5745 6.84906 41.6548 6.84906C40.3751 6.84906 39.2172 7.15377 38.1812 7.76319C37.1756 8.34214 36.3834 9.14961 35.8044 10.1856C35.2255 11.1912 34.936 12.3338 34.936 13.6136C34.936 15.5637 35.5607 17.1787 36.81 18.4585Z" fill="#FF0000"/>
</svg>
