<svg width="195" height="45" viewBox="0 0 195 45" fill="none" xmlns="http://www.w3.org/2000/svg">
<path d="M8.244 21.384C9.38 21.384 10.408 21.172 11.328 20.748C12.256 20.324 12.992 19.708 13.536 18.9C14.088 18.084 14.364 17.092 14.364 15.924C14.364 15.004 14.196 14.224 13.86 13.584C13.524 12.944 13.068 12.408 12.492 11.976C11.924 11.536 11.288 11.16 10.584 10.848C9.88 10.536 9.16 10.248 8.424 9.984C7.96 9.816 7.48 9.632 6.984 9.432C6.496 9.232 6.044 8.988 5.628 8.7C5.22 8.412 4.888 8.056 4.632 7.632C4.376 7.2 4.248 6.672 4.248 6.048C4.248 5.384 4.404 4.748 4.716 4.14C5.036 3.524 5.504 3.02 6.12 2.628C6.736 2.236 7.484 2.04 8.364 2.04C9.052 2.04 9.672 2.156 10.224 2.388C10.784 2.62 11.26 2.916 11.652 3.276C12.044 3.636 12.336 4.008 12.528 4.392L13.296 3.576C13.056 3.144 12.704 2.72 12.24 2.304C11.776 1.88 11.216 1.532 10.56 1.26C9.904 0.979999 9.172 0.839999 8.364 0.839999C7.316 0.839999 6.388 1.076 5.58 1.548C4.78 2.012 4.152 2.64 3.696 3.432C3.24 4.216 3.012 5.084 3.012 6.036C3.012 6.828 3.16 7.504 3.456 8.064C3.76 8.616 4.148 9.076 4.62 9.444C5.1 9.812 5.608 10.116 6.144 10.356C6.68 10.596 7.18 10.8 7.644 10.968C8.332 11.216 8.996 11.476 9.636 11.748C10.276 12.012 10.852 12.328 11.364 12.696C11.876 13.056 12.28 13.5 12.576 14.028C12.88 14.556 13.032 15.204 13.032 15.972C13.032 16.892 12.812 17.664 12.372 18.288C11.94 18.912 11.36 19.384 10.632 19.704C9.912 20.016 9.124 20.172 8.268 20.172C7.364 20.172 6.58 20.028 5.916 19.74C5.252 19.444 4.688 19.084 4.224 18.66C3.768 18.236 3.404 17.824 3.132 17.424C2.868 17.024 2.68 16.716 2.568 16.5L1.74 17.364C1.836 17.572 2.032 17.896 2.328 18.336C2.632 18.768 3.044 19.22 3.564 19.692C4.092 20.156 4.74 20.556 5.508 20.892C6.284 21.22 7.196 21.384 8.244 21.384ZM24.2062 21H25.6222L28.2263 14.244H36.9263L39.5182 21H40.9343L33.1823 1.2H31.9583L24.2062 21ZM28.6703 13.08L32.5703 2.904L36.4822 13.08H28.6703ZM60.7258 21.384C61.7898 21.384 62.8538 21.212 63.9178 20.868C64.9818 20.524 65.9538 20.004 66.8338 19.308C67.7218 18.604 68.4338 17.72 68.9698 16.656C69.5058 15.584 69.7738 14.324 69.7738 12.876V11.412H60.6058V12.516H68.4298V13.308C68.4298 14.364 68.2098 15.316 67.7698 16.164C67.3298 17.012 66.7418 17.736 66.0058 18.336C65.2698 18.936 64.4418 19.396 63.5218 19.716C62.6098 20.036 61.6738 20.196 60.7138 20.196C59.5378 20.196 58.4418 19.964 57.4258 19.5C56.4178 19.028 55.5338 18.376 54.7738 17.544C54.0138 16.712 53.4218 15.744 52.9978 14.64C52.5738 13.536 52.3618 12.348 52.3618 11.076C52.3618 9.9 52.5498 8.768 52.9258 7.68C53.3098 6.592 53.8618 5.624 54.5818 4.776C55.3098 3.92 56.1938 3.244 57.2338 2.748C58.2738 2.252 59.4578 2.004 60.7858 2.004C62.1698 2.004 63.4498 2.28 64.6258 2.832C65.8018 3.384 66.7738 4.116 67.5418 5.028L68.2738 4.044C67.4418 3.092 66.3898 2.32 65.1178 1.728C63.8538 1.136 62.4218 0.839999 60.8218 0.839999C59.2538 0.839999 57.8578 1.128 56.6338 1.704C55.4098 2.272 54.3738 3.044 53.5258 4.02C52.6858 4.996 52.0458 6.096 51.6058 7.32C51.1738 8.544 50.9578 9.812 50.9578 11.124C50.9578 12.548 51.2058 13.88 51.7018 15.12C52.1978 16.36 52.8858 17.452 53.7658 18.396C54.6538 19.332 55.6898 20.064 56.8738 20.592C58.0658 21.12 59.3498 21.384 60.7258 21.384ZM81.4003 21H82.7083V12.444H85.2883L91.7563 21H93.4243L86.8123 12.348C88.5083 12.228 89.8563 11.66 90.8563 10.644C91.8643 9.628 92.3683 8.312 92.3683 6.696C92.3683 4.992 91.8083 3.652 90.6883 2.676C89.5763 1.692 88.0603 1.2 86.1403 1.2H81.4003V21ZM82.7083 11.28V2.28H85.9003C87.5003 2.28 88.7603 2.676 89.6803 3.468C90.6003 4.26 91.0603 5.344 91.0603 6.72C91.0603 8.112 90.5923 9.22 89.6563 10.044C88.7283 10.868 87.4763 11.28 85.9003 11.28H82.7083ZM102.27 21H103.686L106.29 14.244H114.99L117.582 21H118.998L111.246 1.2H110.022L102.27 21ZM106.734 13.08L110.634 2.904L114.546 13.08H106.734ZM130.162 21H131.47V3.492L142.63 21H143.938V1.2H142.63V18.732L131.47 1.2H130.162V21ZM156.886 21H161.098C162.506 21 163.814 20.752 165.022 20.256C166.238 19.752 167.298 19.052 168.202 18.156C169.114 17.252 169.822 16.2 170.326 15C170.83 13.8 171.082 12.5 171.082 11.1C171.082 9.708 170.826 8.412 170.314 7.212C169.81 6.012 169.106 4.964 168.202 4.068C167.298 3.164 166.238 2.46 165.022 1.956C163.814 1.452 162.506 1.2 161.098 1.2H156.886V21ZM158.194 19.824V2.376H161.014C162.238 2.376 163.378 2.6 164.434 3.048C165.49 3.488 166.414 4.104 167.206 4.896C167.998 5.688 168.614 6.616 169.054 7.68C169.502 8.736 169.726 9.876 169.726 11.1C169.726 12.332 169.502 13.476 169.054 14.532C168.614 15.588 167.998 16.512 167.206 17.304C166.414 18.096 165.49 18.716 164.434 19.164C163.378 19.604 162.238 19.824 161.014 19.824H158.194ZM182.86 21H192.58V19.836H184.168V11.652H192.292V10.5H184.168V2.364H192.58V1.2H182.86V21Z" fill="white"/>
<path d="M72.1683 41.662H73.0533V36.7699C73.0533 35.5817 73.8438 34.7366 74.9027 34.7366C75.9467 34.7366 76.5533 35.4326 76.5533 36.4667V41.662H77.4581V36.6357C77.4581 35.537 78.1143 34.7366 79.2777 34.7366C80.2869 34.7366 80.9581 35.3431 80.9581 36.5462V41.662H81.843V36.5462C81.843 34.836 80.9631 33.9262 79.5462 33.9262C78.4325 33.9262 77.6271 34.4681 77.2841 35.3133H77.2195C76.8814 34.4482 76.2102 33.9262 75.1562 33.9262C74.157 33.9262 73.4112 34.4084 73.108 35.1989H73.0284V34.0256H72.1683V41.662ZM89.7439 41.8211C91.7226 41.8211 93.1047 40.2053 93.1047 37.8786C93.1047 35.537 91.7226 33.9212 89.7439 33.9212C87.7652 33.9212 86.3831 35.537 86.3831 37.8786C86.3831 40.2053 87.7652 41.8211 89.7439 41.8211ZM89.7439 41.0107C88.158 41.0107 87.2731 39.5888 87.2731 37.8786C87.2731 36.1684 88.158 34.7266 89.7439 34.7266C91.3299 34.7266 92.2148 36.1684 92.2148 37.8786C92.2148 39.5888 91.3299 41.0107 89.7439 41.0107ZM97.8213 41.662H98.6814V40.2451H98.7908C99.099 40.9461 99.7453 41.8211 101.137 41.8211C103.012 41.8211 104.279 40.2351 104.279 37.8637C104.279 35.5121 103.007 33.9212 101.122 33.9212C99.7255 33.9212 99.0941 34.7962 98.7908 35.4823H98.7113V31.4802H97.8213V41.662ZM98.6963 37.8488C98.6963 36.0192 99.5365 34.7266 101.028 34.7266C102.559 34.7266 103.39 36.0888 103.39 37.8488C103.39 39.6286 102.549 41.0107 101.028 41.0107C99.5465 41.0107 98.6963 39.6932 98.6963 37.8488ZM108.823 41.662H109.713V34.0256H108.823V41.662ZM109.276 32.7131C109.639 32.7131 109.942 32.4248 109.942 32.0768C109.942 31.7287 109.639 31.4404 109.276 31.4404C108.913 31.4404 108.614 31.7287 108.614 32.0768C108.614 32.4248 108.913 32.7131 109.276 32.7131ZM115.529 31.4802H114.644V41.662H115.529V31.4802ZM120.47 41.662H121.36V34.0256H120.47V41.662ZM120.922 32.7131C121.285 32.7131 121.589 32.4248 121.589 32.0768C121.589 31.7287 121.285 31.4404 120.922 31.4404C120.56 31.4404 120.261 31.7287 120.261 32.0768C120.261 32.4248 120.56 32.7131 120.922 32.7131Z" fill="white"/>
</svg>
