<svg width="172" height="60" viewBox="0 0 172 60" fill="none" xmlns="http://www.w3.org/2000/svg">
<path opacity="0.65" d="M0.71733 49.2761V56.5488H1.98153V51.5417H2.04901L4.05895 56.5275H5.00355L7.01349 51.5524H7.08097V56.5488H8.34517V49.2761H6.73295L4.57386 54.546H4.48864L2.32955 49.2761H0.71733ZM12.1378 56.6554C13.4091 56.6554 14.2827 56.0339 14.5099 55.0858L13.3097 54.9508C13.1357 55.4125 12.7095 55.6539 12.1555 55.6539C11.3246 55.6539 10.7741 55.1071 10.7635 54.1731H14.5632V53.7789C14.5632 51.8649 13.4126 51.0233 12.0703 51.0233C10.5078 51.0233 9.48864 52.1703 9.48864 53.8535C9.48864 55.5652 10.4936 56.6554 12.1378 56.6554ZM10.767 53.3066C10.8061 52.6106 11.321 52.0247 12.0881 52.0247C12.8267 52.0247 13.3239 52.5645 13.331 53.3066H10.767ZM20.0222 49.0772C19.7594 49.2761 19.3439 49.2725 18.7793 49.2725C18.6195 49.2725 18.4526 49.2725 18.2715 49.2761C16.3929 49.301 15.427 50.551 15.427 53.1149V53.6049C15.427 55.6007 16.4355 56.6554 18.0229 56.6554C19.6103 56.6554 20.6117 55.5971 20.6117 53.9139C20.6117 52.2804 19.66 51.3393 18.307 51.3393C17.476 51.3393 16.8475 51.698 16.5066 52.3656H16.4462C16.574 51.0055 17.0854 50.3912 18.307 50.3627C19.3901 50.3379 19.9973 50.3201 20.4696 49.9082L20.0222 49.0772ZM18.03 55.6255C17.2239 55.6255 16.7303 54.9792 16.7303 53.9494C16.7409 52.9338 17.2275 52.3514 18.0229 52.3514C18.8184 52.3514 19.3084 52.9338 19.3084 53.9494C19.3084 54.9828 18.8219 55.6255 18.03 55.6255ZM24.1202 56.6554C25.3915 56.6554 26.2651 56.0339 26.4924 55.0858L25.2921 54.9508C25.1181 55.4125 24.6919 55.6539 24.138 55.6539C23.307 55.6539 22.7566 55.1071 22.7459 54.1731H26.5456V53.7789C26.5456 51.8649 25.3951 51.0233 24.0527 51.0233C22.4902 51.0233 21.4711 52.1703 21.4711 53.8535C21.4711 55.5652 22.476 56.6554 24.1202 56.6554ZM22.7495 53.3066C22.7885 52.6106 23.3034 52.0247 24.0705 52.0247C24.8091 52.0247 25.3063 52.5645 25.3134 53.3066H22.7495ZM27.2567 56.5488H27.6545C28.8263 56.5488 29.3555 55.725 29.4407 53.9068L29.5259 52.149H31.092V56.5488H32.3349V51.0943H28.3576L28.2617 53.5091C28.2013 55.0396 28.0025 55.4906 27.4379 55.4906H27.2496L27.2567 56.5488ZM34.8686 52.8699V51.0943H33.6293V56.5488H36.108C37.4964 56.5488 38.2955 55.7818 38.299 54.7093C38.2955 53.6085 37.4964 52.8699 36.108 52.8699H34.8686ZM34.8686 53.9245H36.108C36.6655 53.9245 37.0668 54.2548 37.0668 54.7271C37.0668 55.1781 36.6655 55.4941 36.108 55.4941H34.8686V53.9245ZM40.6401 51.0943H39.4007V56.5488H40.6401V54.3436H42.753V56.5488H43.9888V51.0943H42.753V53.2889H40.6401V51.0943ZM46.859 56.6589C47.7148 56.6589 48.2262 56.2576 48.4606 55.7995H48.5032V56.5488H49.739V52.8983C49.739 51.4565 48.5636 51.0233 47.5231 51.0233C46.3761 51.0233 45.4954 51.5346 45.2113 52.5289L46.4116 52.6994C46.5394 52.3265 46.9016 52.0069 47.5302 52.0069C48.1268 52.0069 48.4535 52.3123 48.4535 52.8485V52.8699C48.4535 53.2392 48.0664 53.2569 47.104 53.3599C46.0458 53.4735 45.0337 53.7896 45.0337 55.0183C45.0337 56.0907 45.8185 56.6589 46.859 56.6589ZM47.1928 55.7143C46.6566 55.7143 46.2731 55.4693 46.2731 54.997C46.2731 54.5034 46.7028 54.2974 47.2781 54.2157C47.6154 54.1696 48.2901 54.0843 48.457 53.9494V54.5922C48.457 55.1994 47.967 55.7143 47.1928 55.7143ZM54.256 56.5488H55.4599V51.0943H53.0913C51.756 51.0943 50.9286 51.7797 50.9322 52.8272C50.9286 53.5162 51.305 54.0382 51.9549 54.3045L50.7333 56.5488H51.9975L53.1161 54.4963H54.256V56.5488ZM54.256 53.5588H53.0487C52.484 53.5588 52.1715 53.264 52.1751 52.8556C52.1715 52.4473 52.5018 52.1383 53.0913 52.1383H54.256V53.5588ZM62.0401 50.0858C60.3427 50.0858 59.1069 51.2576 59.1069 53.0332C59.1069 54.7768 60.3285 55.9167 62.0401 55.9167H62.1431V56.8471H63.4109V55.9167H63.5103C65.2148 55.9167 66.4364 54.7626 66.4364 53.0297C66.4364 51.2576 65.2148 50.0858 63.5103 50.0858H63.4109V49.1483H62.1431V50.0858H62.0401ZM62.0401 51.2008H62.1431V54.8017H62.0401C61.0138 54.8017 60.3533 54.1696 60.3533 53.0332C60.3533 51.8507 61.0032 51.2008 62.0401 51.2008ZM63.4109 51.2008H63.5138C64.5472 51.2008 65.1864 51.8542 65.1864 53.0297C65.1864 54.1589 64.5472 54.8017 63.5138 54.8017H63.4109V51.2008ZM69.2028 56.6589C70.0586 56.6589 70.57 56.2576 70.8043 55.7995H70.8469V56.5488H72.0827V52.8983C72.0827 51.4565 70.9073 51.0233 69.8668 51.0233C68.7198 51.0233 67.8391 51.5346 67.555 52.5289L68.7553 52.6994C68.8832 52.3265 69.2454 52.0069 69.8739 52.0069C70.4705 52.0069 70.7972 52.3123 70.7972 52.8485V52.8699C70.7972 53.2392 70.4102 53.2569 69.4478 53.3599C68.3896 53.4735 67.3775 53.7896 67.3775 55.0183C67.3775 56.0907 68.1623 56.6589 69.2028 56.6589ZM69.5366 55.7143C69.0004 55.7143 68.6168 55.4693 68.6168 54.997C68.6168 54.5034 69.0465 54.2974 69.6218 54.2157C69.9592 54.1696 70.6339 54.0843 70.8008 53.9494V54.5922C70.8008 55.1994 70.3107 55.7143 69.5366 55.7143ZM77.7468 49.0772C77.484 49.2761 77.0685 49.2725 76.5039 49.2725C76.3441 49.2725 76.1772 49.2725 75.9961 49.2761C74.1175 49.301 73.1516 50.551 73.1516 53.1149V53.6049C73.1516 55.6007 74.1602 56.6554 75.7475 56.6554C77.3349 56.6554 78.3363 55.5971 78.3363 53.9139C78.3363 52.2804 77.3846 51.3393 76.0316 51.3393C75.2006 51.3393 74.5721 51.698 74.2312 52.3656H74.1708C74.2987 51.0055 74.81 50.3912 76.0316 50.3627C77.1147 50.3379 77.7219 50.3201 78.1942 49.9082L77.7468 49.0772ZM75.7546 55.6255C74.9485 55.6255 74.4549 54.9792 74.4549 53.9494C74.4656 52.9338 74.9521 52.3514 75.7475 52.3514C76.543 52.3514 77.033 52.9338 77.033 53.9494C77.033 54.9828 76.5465 55.6255 75.7546 55.6255ZM79.43 58.5943H80.7156V55.6895H80.7688C80.9712 56.0872 81.3938 56.6447 82.3313 56.6447C83.6168 56.6447 84.5792 55.6255 84.5792 53.8287C84.5792 52.0105 83.5884 51.0233 82.3278 51.0233C81.3654 51.0233 80.9641 51.6021 80.7688 51.9963H80.6942V51.0943H79.43V58.5943ZM80.6907 53.8216C80.6907 52.7633 81.1452 52.0779 81.9727 52.0779C82.8285 52.0779 83.2688 52.8059 83.2688 53.8216C83.2688 54.8443 82.8214 55.59 81.9727 55.59C81.1523 55.59 80.6907 54.8798 80.6907 53.8216ZM86.9194 54.8088V51.0943H85.68V56.5488H87.0046L89.1815 52.8308V56.5488H90.4244V51.0943H89.1033L86.9194 54.8088ZM91.7445 56.5488H93.03V54.4927H93.6586L95.1536 56.5488H96.709L94.6671 53.7718L96.6877 51.0943H95.1394L93.4988 53.296H93.03V51.0943H91.7445V56.5488ZM99.0075 56.6589C99.8633 56.6589 100.375 56.2576 100.609 55.7995H100.652V56.5488H101.887V52.8983C101.887 51.4565 100.712 51.0233 99.6715 51.0233C98.5245 51.0233 97.6438 51.5346 97.3597 52.5289L98.56 52.6994C98.6879 52.3265 99.0501 52.0069 99.6786 52.0069C100.275 52.0069 100.602 52.3123 100.602 52.8485V52.8699C100.602 53.2392 100.215 53.2569 99.2525 53.3599C98.1942 53.4735 97.1822 53.7896 97.1822 55.0183C97.1822 56.0907 97.967 56.6589 99.0075 56.6589ZM99.3413 55.7143C98.805 55.7143 98.4215 55.4693 98.4215 54.997C98.4215 54.5034 98.8512 54.2974 99.4265 54.2157C99.7638 54.1696 100.439 54.0843 100.605 53.9494V54.5922C100.605 55.1994 100.115 55.7143 99.3413 55.7143Z" fill="black"/>
<path d="M26.4903 42H21.6707L19.9617 30.8912L14.2535 42.0342H13.2964L7.58818 30.8912L5.87913 42H1.05961L4.1359 23.5423H8.40852L13.7749 34.0017L19.2097 23.5423H23.4482L26.4903 42ZM78.4752 42H72.4593L66.5118 33.1813V42H61.5214V23.5423H66.5118V31.7457L72.1175 23.5423H77.7916L71.5364 32.361L78.4752 42ZM88.4598 42.5127C86.6368 42.5127 84.9733 42.0911 83.4693 41.248C81.9882 40.3821 80.8146 39.1972 79.9487 37.6932C79.1056 36.1892 78.684 34.5258 78.684 32.7028C78.684 29.9455 79.6183 27.644 81.4868 25.7982C83.3554 23.9524 85.6911 23.0296 88.4939 23.0296C90.8866 23.0296 92.9375 23.7246 94.6465 25.1146C96.3556 26.4818 97.438 28.3048 97.8937 30.5836H92.9375C92.5273 29.6948 91.9234 28.9998 91.1259 28.4985C90.3511 27.9744 89.4624 27.7123 88.4598 27.7123C87.1153 27.7123 85.9873 28.1909 85.0758 29.148C84.1871 30.105 83.7428 31.3014 83.7428 32.737C83.7428 34.1726 84.1985 35.3803 85.11 36.3601C86.0215 37.34 87.1381 37.8299 88.4598 37.8299C89.4624 37.8299 90.3511 37.5679 91.1259 37.0438C91.9007 36.4969 92.5045 35.7221 92.9375 34.7195H97.9621C97.5063 37.0665 96.4125 38.9579 94.6807 40.3935C92.9489 41.8063 90.8752 42.5127 88.4598 42.5127ZM114.677 23.5423H117.479V42H112.66V32.2242L104.08 42H101.243V23.5423H106.063V33.2155L114.677 23.5423ZM146.37 42H141.551L139.842 30.8912L134.134 42.0342H133.176L127.468 30.8912L125.759 42H120.94L124.016 23.5423H128.289L133.655 34.0017L139.09 23.5423H143.328L146.37 42ZM164.751 23.5081H168.477V41.9658H164.546L164.136 40.3251C162.45 41.7835 160.456 42.5127 158.155 42.5127C155.374 42.5127 153.062 41.5898 151.216 39.7441C149.393 37.8755 148.481 35.5398 148.481 32.737C148.481 29.9569 149.393 27.644 151.216 25.7982C153.062 23.9524 155.374 23.0296 158.155 23.0296C160.502 23.0296 162.518 23.7815 164.205 25.2855L164.751 23.5081ZM154.942 36.3601C155.899 37.3172 157.095 37.7957 158.531 37.7957C159.989 37.7957 161.197 37.3172 162.154 36.3601C163.111 35.4031 163.589 34.1953 163.589 32.737C163.589 31.2786 163.111 30.0708 162.154 29.1138C161.197 28.1567 160 27.6782 158.565 27.6782C157.608 27.6782 156.742 27.906 155.967 28.3618C155.215 28.7947 154.622 29.3986 154.19 30.1734C153.757 30.9254 153.54 31.7799 153.54 32.737C153.54 34.1953 154.007 35.4031 154.942 36.3601Z" fill="black"/>
<path d="M50.9277 17.2729H55.9097V41.9543H50.6534L50.105 39.7604C47.8501 41.7105 45.1839 42.6856 42.1064 42.6856C38.3889 42.6856 35.2961 41.4515 32.828 38.9834C30.3903 36.4848 29.1715 33.3615 29.1715 29.6136C29.1715 25.8961 30.3903 22.8034 32.828 20.3352C35.2961 17.8671 38.3889 16.633 42.1064 16.633C45.2449 16.633 47.9415 17.6385 50.1964 19.6496L50.9277 17.2729ZM37.81 34.4585C39.0898 35.7382 40.6895 36.3781 42.6091 36.3781C44.5593 36.3781 46.1742 35.7382 47.454 34.4585C48.7338 33.1787 49.3737 31.5637 49.3737 29.6136C49.3737 27.6635 48.7338 26.0485 47.454 24.7687C46.1742 23.489 44.5745 22.8491 42.6548 22.8491C41.3751 22.8491 40.2172 23.1538 39.1812 23.7632C38.1756 24.3421 37.3834 25.1496 36.8044 26.1856C36.2255 27.1912 35.936 28.3338 35.936 29.6136C35.936 31.5637 36.5607 33.1787 37.81 34.4585Z" fill="#FF0000"/>
</svg>
