<svg width="223" height="55" viewBox="0 0 223 55" fill="none" xmlns="http://www.w3.org/2000/svg">
<path d="M9.3328 24.4385C10.7033 24.4385 11.9321 24.1919 13.0193 23.6985C14.1157 23.196 14.9791 22.4697 15.6095 21.5195C16.249 20.5693 16.5688 19.4181 16.5688 18.0659C16.5688 17.0244 16.3815 16.1427 16.0069 15.421C15.6323 14.6992 15.1207 14.087 14.472 13.5845C13.8325 13.0729 13.1061 12.6344 12.293 12.2689C11.4798 11.8943 10.6302 11.5426 9.74393 11.2137C9.04043 10.9578 8.3415 10.6746 7.64714 10.364C6.96191 10.0442 6.39089 9.6285 5.93407 9.11686C5.48639 8.59609 5.26255 7.90629 5.26255 7.04748C5.26255 6.34398 5.43157 5.67702 5.76961 5.04661C6.10766 4.40707 6.60102 3.88629 7.24971 3.48429C7.90752 3.08229 8.70239 2.88129 9.6343 2.88129C10.7489 2.88129 11.7174 3.14168 12.5397 3.66245C13.3711 4.18323 13.9786 4.75882 14.3624 5.38923L15.4313 3.95025C15.1207 3.46602 14.6776 3.00007 14.102 2.55238C13.5355 2.09557 12.8731 1.72097 12.1148 1.42861C11.3565 1.12711 10.5251 0.976362 9.62059 0.976362C8.36891 0.976362 7.26341 1.25502 6.30409 1.81234C5.35391 2.36966 4.6093 3.1097 4.07025 4.03248C3.54034 4.94611 3.27539 5.95111 3.27539 7.04748C3.27539 7.92457 3.43527 8.67375 3.75505 9.29502C4.08395 9.91629 4.5088 10.4416 5.02957 10.871C5.55034 11.3005 6.10766 11.6613 6.70152 11.9537C7.30452 12.2461 7.88011 12.4973 8.4283 12.7075C9.47898 13.1003 10.4566 13.5115 11.3611 13.9409C12.2656 14.3611 12.9919 14.8956 13.5401 15.5443C14.0974 16.193 14.3761 17.0564 14.3761 18.1345C14.3761 19.0938 14.1477 19.8978 13.6908 20.5465C13.234 21.1951 12.6265 21.6839 11.8681 22.0128C11.119 22.3417 10.2875 22.5062 9.37391 22.5062C8.41459 22.5062 7.56948 22.3555 6.83857 22.054C6.10766 21.7433 5.48182 21.3687 4.96105 20.9302C4.44027 20.4825 4.01086 20.044 3.67282 19.6145C3.34391 19.176 3.09723 18.8288 2.93277 18.573L1.74048 20.1079C1.88666 20.3546 2.14248 20.7155 2.50793 21.1906C2.88252 21.6565 3.38045 22.1407 4.00173 22.6432C4.623 23.1366 5.37218 23.5615 6.24927 23.9178C7.1355 24.265 8.16334 24.4385 9.3328 24.4385ZM27.3431 24H29.577L32.359 16.7914H42.0755L44.8301 24H47.0777L38.1834 1.3875H36.2511L27.3431 24ZM33.0579 14.955L37.2104 4.12841L41.3629 14.955H33.0579ZM69.1454 24.4385C70.3788 24.4385 71.6077 24.2375 72.832 23.8355C74.0562 23.4335 75.1709 22.8305 76.1759 22.0265C77.19 21.2225 77.9986 20.2175 78.6016 19.0115C79.2046 17.8055 79.5061 16.4031 79.5061 14.8042V12.7897H69.0358V14.4753H77.3682V15.2565C77.3682 16.362 77.1352 17.3624 76.6692 18.2578C76.2124 19.1532 75.5911 19.9206 74.8054 20.5602C74.0288 21.1997 73.1517 21.6885 72.1741 22.0265C71.2057 22.3646 70.2098 22.5336 69.1865 22.5336C67.9257 22.5336 66.7517 22.2869 65.6645 21.7936C64.5864 21.2911 63.6408 20.5921 62.8276 19.6968C62.0145 18.7923 61.3795 17.7416 60.9227 16.5447C60.475 15.3387 60.2512 14.0368 60.2512 12.6389C60.2512 11.3416 60.4522 10.1082 60.8542 8.9387C61.2653 7.76011 61.8546 6.714 62.6221 5.80036C63.3987 4.87759 64.3443 4.15125 65.4589 3.62134C66.5827 3.09143 67.8572 2.82648 69.2825 2.82648C70.7717 2.82648 72.165 3.12341 73.4624 3.71727C74.7597 4.302 75.8378 5.08316 76.6966 6.06075L77.7793 4.47102C76.7926 3.42034 75.5729 2.57523 74.1202 1.93568C72.6675 1.29613 71.0641 0.976362 69.3099 0.976362C67.5283 0.976362 65.9386 1.3007 64.5407 1.94938C63.1428 2.58893 61.9597 3.46602 60.9912 4.58066C60.0228 5.68616 59.2827 6.94241 58.7711 8.34941C58.2686 9.74727 58.0173 11.2 58.0173 12.7075C58.0173 14.3429 58.3006 15.8732 58.867 17.2985C59.4335 18.7146 60.2192 19.9572 61.2242 21.0261C62.2383 22.0951 63.4169 22.931 64.76 23.534C66.1122 24.137 67.574 24.4385 69.1454 24.4385ZM92.4374 24H94.5205V14.4753H97.0969L104.306 24H106.95L99.4267 14.2835C101.3 14.0825 102.784 13.4018 103.881 12.2415C104.977 11.0812 105.525 9.59195 105.525 7.77382C105.525 5.78209 104.877 4.21977 103.579 3.08686C102.282 1.95395 100.523 1.3875 98.3029 1.3875H92.4374V24ZM94.5205 12.6663V3.08686H97.8096C99.5546 3.08686 100.92 3.5117 101.907 4.36138C102.894 5.20193 103.387 6.35768 103.387 7.82863C103.387 9.31786 102.885 10.4965 101.88 11.3644C100.884 12.2324 99.5272 12.6663 97.8096 12.6663H94.5205ZM116.522 24H118.756L121.538 16.7914H131.255L134.009 24H136.257L127.363 1.3875H125.43L116.522 24ZM122.237 14.955L126.39 4.12841L130.542 14.955H122.237ZM148.553 24H150.636V4.96438L162.779 24H164.862V1.3875H162.779V20.4505L150.636 1.3875H148.553V24ZM179.368 24H184.466C186.074 24 187.568 23.7168 188.948 23.1503C190.336 22.5747 191.547 21.7753 192.579 20.752C193.621 19.7196 194.429 18.5182 195.005 17.1477C195.581 15.7773 195.868 14.2972 195.868 12.7075C195.868 11.1177 195.576 9.63764 194.991 8.26718C194.416 6.88759 193.607 5.68616 192.566 4.66289C191.533 3.63048 190.327 2.82648 188.948 2.25088C187.568 1.67529 186.074 1.3875 184.466 1.3875H179.368V24ZM181.451 22.1362V3.25132H184.274C185.599 3.25132 186.833 3.49343 187.975 3.97766C189.117 4.45275 190.112 5.1197 190.962 5.97852C191.821 6.83734 192.488 7.83777 192.963 8.97982C193.438 10.1219 193.676 11.3598 193.676 12.6937C193.676 14.0277 193.438 15.2702 192.963 16.4214C192.488 17.5634 191.821 18.5639 190.962 19.4227C190.112 20.2724 189.117 20.9393 187.975 21.4235C186.833 21.8986 185.599 22.1362 184.274 22.1362H181.451ZM208.952 24H220.34V22.1636H211.035V13.5845H220.011V11.7481H211.035V3.22391H220.34V1.3875H208.952V24Z" fill="white"/>
<path d="M1.51719 51H2.54747V46.1026C2.54747 45.8251 2.64391 45.5569 2.8368 45.2982C3.03438 45.0347 3.29548 44.8183 3.62009 44.649C3.9447 44.4796 4.30459 44.3949 4.69977 44.3949C5.2643 44.3949 5.71593 44.5784 6.05466 44.9453C6.39338 45.3123 6.56274 45.8086 6.56274 46.4343V51H7.59302V46.1803C7.59302 45.8839 7.68711 45.5993 7.87529 45.3264C8.06346 45.0535 8.31751 44.8301 8.63741 44.656C8.95731 44.482 9.31485 44.3949 9.71003 44.3949C10.284 44.3949 10.7427 44.5878 11.0861 44.9736C11.4295 45.3593 11.6012 45.8815 11.6012 46.5402V51H12.6315V46.2508C12.6315 45.3852 12.3822 44.7195 11.8835 44.2538C11.3848 43.7833 10.7497 43.5481 9.97818 43.5481C9.38542 43.5481 8.87263 43.6869 8.43982 43.9645C8.01172 44.242 7.65888 44.6113 7.38132 45.0724C7.21195 44.6019 6.90616 44.2303 6.46394 43.9574C6.02643 43.6845 5.51129 43.5481 4.91853 43.5481C3.91647 43.5481 3.12612 43.9527 2.54747 44.7619V43.7739H1.51719V51ZM21.1862 51.2258C21.9389 51.2258 22.6164 51.0635 23.2186 50.7389C23.8254 50.4143 24.3053 49.9627 24.6581 49.384C25.011 48.8054 25.1874 48.1397 25.1874 47.387C25.1874 46.6295 25.011 45.9639 24.6581 45.3899C24.3053 44.8113 23.8254 44.3596 23.2186 44.035C22.6164 43.7104 21.9389 43.5481 21.1862 43.5481C20.4335 43.5481 19.7537 43.7104 19.1468 44.035C18.5447 44.3596 18.0672 44.8113 17.7143 45.3899C17.3615 45.9639 17.1851 46.6295 17.1851 47.387C17.1851 48.1397 17.3615 48.8054 17.7143 49.384C18.0672 49.9627 18.5447 50.4143 19.1468 50.7389C19.7537 51.0635 20.4335 51.2258 21.1862 51.2258ZM21.1862 50.3084C20.6217 50.3084 20.1183 50.1838 19.6761 49.9344C19.2339 49.6851 18.8857 49.3417 18.6317 48.9042C18.3777 48.4619 18.2506 47.9562 18.2506 47.387C18.2506 46.8177 18.3777 46.3143 18.6317 45.8768C18.8857 45.4346 19.2339 45.0888 19.6761 44.8395C20.1183 44.5902 20.6217 44.4655 21.1862 44.4655C21.7508 44.4655 22.2541 44.5902 22.6964 44.8395C23.1386 45.0888 23.4867 45.4346 23.7407 45.8768C23.9948 46.3143 24.1218 46.8177 24.1218 47.387C24.1218 47.9562 23.9948 48.4619 23.7407 48.9042C23.4867 49.3417 23.1386 49.6851 22.6964 49.9344C22.2541 50.1838 21.7508 50.3084 21.1862 50.3084ZM33.8897 51.2258C34.5672 51.2258 35.1764 51.0612 35.7174 50.7318C36.2584 50.4025 36.6865 49.9486 37.0017 49.3699C37.3216 48.7913 37.4816 48.1303 37.4816 47.387C37.4816 46.6484 37.324 45.9897 37.0088 45.4111C36.6936 44.8324 36.2631 44.3785 35.7174 44.0491C35.1764 43.7151 34.5601 43.5481 33.8686 43.5481C33.224 43.5481 32.6407 43.701 32.1185 44.0068C31.5963 44.3126 31.187 44.736 30.8906 45.277V38.8625H29.8603V51H30.8906V49.4758C31.1964 50.0215 31.6128 50.4496 32.1397 50.7601C32.6666 51.0706 33.2499 51.2258 33.8897 51.2258ZM33.6357 50.3296C33.0947 50.3296 32.6148 50.2049 32.1961 49.9556C31.7774 49.7016 31.4481 49.3534 31.2082 48.9112C30.9683 48.469 30.8483 47.9633 30.8483 47.394C30.8483 46.8201 30.9683 46.312 31.2082 45.8698C31.4481 45.4228 31.7774 45.0747 32.1961 44.8254C32.6148 44.5713 33.0947 44.4443 33.6357 44.4443C34.1767 44.4443 34.6542 44.5713 35.0682 44.8254C35.4869 45.0747 35.8162 45.4228 36.0561 45.8698C36.2961 46.312 36.416 46.8201 36.416 47.394C36.416 47.9586 36.2961 48.4619 36.0561 48.9042C35.8209 49.3464 35.494 49.6945 35.0753 49.9486C34.6566 50.2026 34.1767 50.3296 33.6357 50.3296ZM42.7 42.3273C42.8882 42.3273 43.0482 42.2614 43.1799 42.1297C43.3116 41.998 43.3775 41.838 43.3775 41.6499C43.3775 41.4617 43.3116 41.3041 43.1799 41.1771C43.0482 41.0453 42.8882 40.9795 42.7 40.9795C42.5118 40.9795 42.3519 41.0453 42.2202 41.1771C42.0931 41.3041 42.0296 41.4617 42.0296 41.6499C42.0296 41.838 42.0931 41.998 42.2202 42.1297C42.3519 42.2614 42.5118 42.3273 42.7 42.3273ZM42.1849 51H43.2152V43.7739H42.1849V51ZM48.4454 51H49.4757V38.8625H48.4454V51ZM55.2069 42.3273C55.3951 42.3273 55.5551 42.2614 55.6868 42.1297C55.8185 41.998 55.8844 41.838 55.8844 41.6499C55.8844 41.4617 55.8185 41.3041 55.6868 41.1771C55.5551 41.0453 55.3951 40.9795 55.2069 40.9795C55.0188 40.9795 54.8588 41.0453 54.7271 41.1771C54.6001 41.3041 54.5366 41.4617 54.5366 41.6499C54.5366 41.838 54.6001 41.998 54.7271 42.1297C54.8588 42.2614 55.0188 42.3273 55.2069 42.3273ZM54.6918 51H55.7221V43.7739H54.6918V51Z" fill="white"/>
</svg>
